<svg width="26" height="27" viewBox="0 0 26 27" fill="none" xmlns="http://www.w3.org/2000/svg">
<g clip-path="url(#clip0_1_990)">
<path d="M13 26.3C20.1797 26.3 26 20.4797 26 13.3C26 6.1203 20.1797 0.300003 13 0.300003C5.8203 0.300003 0 6.1203 0 13.3C0 20.4797 5.8203 26.3 13 26.3Z" fill="#1DB385"/>
<path d="M8.55762 9.46073L5.92334 17.3001H4.07617L7.5293 8.0579H8.70996L8.55762 9.46073ZM10.7603 17.3001L8.11328 9.46073L7.95459 8.0579H9.1416L12.6138 17.3001H10.7603ZM10.6396 13.866V15.2434H5.68213V13.866H10.6396ZM13.5659 8.0579H16.9238C17.6263 8.0579 18.2293 8.16369 18.7329 8.37528C19.2365 8.58687 19.6237 8.90002 19.8945 9.31474C20.1654 9.72945 20.3008 10.2394 20.3008 10.8445C20.3008 11.3227 20.2161 11.7374 20.0469 12.0887C19.8776 12.4399 19.6385 12.734 19.3296 12.971C19.0249 13.208 18.6652 13.3942 18.2505 13.5296L17.7046 13.8089H14.7402L14.7275 12.4314H16.9429C17.3026 12.4314 17.6009 12.368 17.8379 12.241C18.0749 12.1141 18.2526 11.9384 18.3711 11.7141C18.4938 11.4899 18.5552 11.2338 18.5552 10.9461C18.5552 10.6372 18.4959 10.3706 18.3774 10.1463C18.259 9.91776 18.0791 9.74214 17.8379 9.61942C17.5967 9.4967 17.292 9.43534 16.9238 9.43534H15.3115V17.3001H13.5659V8.0579ZM18.7837 17.3001L16.6445 13.1614L18.4917 13.1551L20.6562 17.2112V17.3001H18.7837Z" fill="white"/>
</g>
<defs>
<clipPath id="clip0_1_990">
<rect width="26" height="26" fill="white" transform="translate(0 0.300003)"/>
</clipPath>
</defs>
</svg>
