<svg width="203" height="27" viewBox="0 0 203 27" fill="none" xmlns="http://www.w3.org/2000/svg">
<g clip-path="url(#clip0_1_989)">
<path d="M13 26.3C20.1797 26.3 26 20.4797 26 13.3C26 6.1203 20.1797 0.300003 13 0.300003C5.8203 0.300003 0 6.1203 0 13.3C0 20.4797 5.8203 26.3 13 26.3Z" fill="#1DB385"/>
<path d="M8.55762 9.46073L5.92334 17.3001H4.07617L7.5293 8.0579H8.70996L8.55762 9.46073ZM10.7603 17.3001L8.11328 9.46073L7.95459 8.0579H9.1416L12.6138 17.3001H10.7603ZM10.6396 13.866V15.2434H5.68213V13.866H10.6396ZM13.5659 8.0579H16.9238C17.6263 8.0579 18.2293 8.16369 18.7329 8.37528C19.2365 8.58687 19.6237 8.90002 19.8945 9.31474C20.1654 9.72945 20.3008 10.2394 20.3008 10.8445C20.3008 11.3227 20.2161 11.7374 20.0469 12.0887C19.8776 12.4399 19.6385 12.734 19.3296 12.971C19.0249 13.208 18.6652 13.3942 18.2505 13.5296L17.7046 13.8089H14.7402L14.7275 12.4314H16.9429C17.3026 12.4314 17.6009 12.368 17.8379 12.241C18.0749 12.1141 18.2526 11.9384 18.3711 11.7141C18.4938 11.4899 18.5552 11.2338 18.5552 10.9461C18.5552 10.6372 18.4959 10.3706 18.3774 10.1463C18.259 9.91776 18.0791 9.74214 17.8379 9.61942C17.5967 9.4967 17.292 9.43534 16.9238 9.43534H15.3115V17.3001H13.5659V8.0579ZM18.7837 17.3001L16.6445 13.1614L18.4917 13.1551L20.6562 17.2112V17.3001H18.7837Z" fill="white"/>
</g>
<path d="M42.8877 9.67305L39.9141 18.3H38.1162L41.8623 8.34688H43.0107L42.8877 9.67305ZM45.376 18.3L42.3955 9.67305L42.2656 8.34688H43.4209L47.1807 18.3H45.376ZM45.2324 14.6086V15.9689H39.8184V14.6086H45.2324ZM50.2945 7.8V18.3H48.6402V7.8H50.2945ZM56.6691 16.8166V13.2893C56.6691 13.0249 56.6213 12.7971 56.5256 12.6057C56.4299 12.4143 56.284 12.2661 56.0881 12.1613C55.8967 12.0565 55.6551 12.0041 55.3635 12.0041C55.0946 12.0041 54.8622 12.0497 54.6662 12.1408C54.4702 12.232 54.3176 12.355 54.2082 12.51C54.0988 12.6649 54.0441 12.8404 54.0441 13.0363H52.4035C52.4035 12.7447 52.4742 12.4621 52.6154 12.1887C52.7567 11.9152 52.9618 11.6714 53.2307 11.4572C53.4995 11.243 53.8208 11.0744 54.1945 10.9514C54.5682 10.8283 54.9875 10.7668 55.4523 10.7668C56.0083 10.7668 56.5005 10.8602 56.9289 11.0471C57.3618 11.2339 57.7014 11.5165 57.9475 11.8947C58.1981 12.2684 58.3234 12.7378 58.3234 13.3029V16.591C58.3234 16.9283 58.3462 17.2313 58.3918 17.5002C58.4419 17.7645 58.5126 17.9947 58.6037 18.1906V18.3H56.9152C56.8378 18.1223 56.7762 17.8967 56.7307 17.6232C56.6896 17.3453 56.6691 17.0764 56.6691 16.8166ZM56.9084 13.802L56.9221 14.8205H55.7395C55.4341 14.8205 55.1652 14.8501 54.9328 14.9094C54.7004 14.9641 54.5067 15.0461 54.3518 15.1555C54.1968 15.2648 54.0806 15.397 54.0031 15.552C53.9257 15.7069 53.8869 15.8824 53.8869 16.0783C53.8869 16.2743 53.9325 16.4543 54.0236 16.6184C54.1148 16.7779 54.2469 16.9032 54.4201 16.9943C54.5979 17.0855 54.812 17.1311 55.0627 17.1311C55.3999 17.1311 55.6939 17.0627 55.9445 16.926C56.1997 16.7847 56.4003 16.6138 56.5461 16.4133C56.6919 16.2082 56.7694 16.0145 56.7785 15.8322L57.3117 16.5637C57.257 16.7505 57.1636 16.951 57.0314 17.1652C56.8993 17.3794 56.7261 17.5845 56.5119 17.7805C56.3023 17.9719 56.0493 18.1291 55.7531 18.2522C55.4615 18.3752 55.1242 18.4367 54.7414 18.4367C54.2583 18.4367 53.8277 18.341 53.4494 18.1496C53.0712 17.9536 52.7749 17.6916 52.5607 17.3635C52.3465 17.0308 52.2395 16.6548 52.2395 16.2355C52.2395 15.8436 52.3124 15.4973 52.4582 15.1965C52.6086 14.8911 52.8273 14.6359 53.1145 14.4309C53.4061 14.2258 53.7616 14.0708 54.1809 13.966C54.6001 13.8566 55.0786 13.802 55.6164 13.802H56.9084ZM62.0799 12.4826V18.3H60.4324V10.9035H61.9842L62.0799 12.4826ZM61.7859 14.3283L61.2527 14.3215C61.2573 13.7974 61.3302 13.3166 61.4715 12.8791C61.6173 12.4416 61.8178 12.0656 62.073 11.7512C62.3328 11.4367 62.6427 11.1952 63.0027 11.0266C63.3628 10.8534 63.7638 10.7668 64.2059 10.7668C64.5613 10.7668 64.8826 10.8169 65.1697 10.9172C65.4614 11.0129 65.7098 11.1701 65.9148 11.3889C66.1245 11.6076 66.284 11.8925 66.3934 12.2434C66.5027 12.5897 66.5574 13.0158 66.5574 13.5217V18.3H64.9031V13.5148C64.9031 13.1594 64.8507 12.8791 64.7459 12.674C64.6456 12.4644 64.4975 12.3163 64.3016 12.2297C64.1102 12.1385 63.8709 12.093 63.5838 12.093C63.3012 12.093 63.0483 12.1522 62.825 12.2707C62.6017 12.3892 62.4126 12.551 62.2576 12.7561C62.1072 12.9611 61.991 13.1981 61.909 13.467C61.827 13.7359 61.7859 14.023 61.7859 14.3283ZM72.6895 8.34688H76.21C76.9665 8.34688 77.6113 8.46081 78.1445 8.68867C78.6777 8.91654 79.0856 9.25378 79.3682 9.70039C79.6553 10.1425 79.7988 10.6893 79.7988 11.341C79.7988 11.8378 79.7077 12.2753 79.5254 12.6535C79.3431 13.0318 79.0856 13.3508 78.7529 13.6105C78.4202 13.8658 78.0238 14.064 77.5635 14.2053L77.0439 14.4582H73.8789L73.8652 13.0979H76.2373C76.6475 13.0979 76.9893 13.0249 77.2627 12.8791C77.5361 12.7333 77.7412 12.535 77.8779 12.2844C78.0192 12.0292 78.0898 11.7421 78.0898 11.423C78.0898 11.0767 78.0215 10.7759 77.8848 10.5207C77.7526 10.2609 77.5475 10.0627 77.2695 9.92598C76.9915 9.7847 76.6383 9.71407 76.21 9.71407H74.4053V18.3H72.6895V8.34688ZM78.3701 18.3L76.0322 13.8293L77.8301 13.8225L80.2021 18.2111V18.3H78.3701ZM83.5074 10.9035V18.3H81.8531V10.9035H83.5074ZM81.7438 8.96211C81.7438 8.71146 81.8258 8.5041 81.9898 8.34004C82.1585 8.17142 82.3909 8.08711 82.6871 8.08711C82.9788 8.08711 83.2089 8.17142 83.3775 8.34004C83.5462 8.5041 83.6305 8.71146 83.6305 8.96211C83.6305 9.20821 83.5462 9.41328 83.3775 9.57735C83.2089 9.74141 82.9788 9.82344 82.6871 9.82344C82.3909 9.82344 82.1585 9.74141 81.9898 9.57735C81.8258 9.41328 81.7438 9.20821 81.7438 8.96211ZM88.7336 17.1242C89.0025 17.1242 89.244 17.0718 89.4582 16.967C89.677 16.8576 89.8524 16.7072 89.9846 16.5158C90.1213 16.3244 90.1965 16.1034 90.2102 15.8527H91.7619C91.7528 16.3313 91.6115 16.7665 91.3381 17.1584C91.0646 17.5503 90.7023 17.8625 90.2512 18.0949C89.8 18.3228 89.301 18.4367 88.7541 18.4367C88.189 18.4367 87.6968 18.341 87.2775 18.1496C86.8583 17.9536 86.5096 17.6848 86.2316 17.343C85.9536 17.0012 85.744 16.607 85.6027 16.1604C85.466 15.7137 85.3977 15.2352 85.3977 14.7248V14.4855C85.3977 13.9751 85.466 13.4966 85.6027 13.05C85.744 12.5988 85.9536 12.2023 86.2316 11.8605C86.5096 11.5188 86.8583 11.2522 87.2775 11.0607C87.6968 10.8648 88.1867 10.7668 88.7473 10.7668C89.3397 10.7668 89.8592 10.8853 90.3059 11.1223C90.7525 11.3547 91.1034 11.6805 91.3586 12.0998C91.6184 12.5145 91.7528 12.9976 91.7619 13.549H90.2102C90.1965 13.2756 90.1281 13.0295 90.0051 12.8107C89.8866 12.5874 89.718 12.4097 89.4992 12.2775C89.285 12.1454 89.0275 12.0793 88.7268 12.0793C88.3941 12.0793 88.1184 12.1477 87.8996 12.2844C87.6809 12.4165 87.51 12.5988 87.3869 12.8313C87.2639 13.0591 87.175 13.3166 87.1203 13.6037C87.0702 13.8863 87.0451 14.1802 87.0451 14.4855V14.7248C87.0451 15.0301 87.0702 15.3264 87.1203 15.6135C87.1704 15.9006 87.257 16.1581 87.3801 16.3859C87.5077 16.6092 87.6809 16.7893 87.8996 16.926C88.1184 17.0581 88.3964 17.1242 88.7336 17.1242ZM95.0535 7.8V18.3H93.4129V7.8H95.0535ZM94.7664 14.3283L94.2332 14.3215C94.2378 13.8111 94.3084 13.3394 94.4451 12.9064C94.5864 12.4735 94.7824 12.0975 95.033 11.7785C95.2882 11.455 95.5936 11.2066 95.949 11.0334C96.3045 10.8557 96.6987 10.7668 97.1316 10.7668C97.4962 10.7668 97.8243 10.8169 98.116 10.9172C98.4122 11.0175 98.6674 11.1792 98.8816 11.4025C99.0958 11.6213 99.2576 11.9084 99.367 12.2639C99.4809 12.6148 99.5379 13.0432 99.5379 13.549V18.3H97.8836V13.5354C97.8836 13.1799 97.8312 12.8973 97.7264 12.6877C97.6261 12.4781 97.478 12.3277 97.282 12.2365C97.0861 12.1408 96.8468 12.093 96.5643 12.093C96.268 12.093 96.006 12.1522 95.7781 12.2707C95.5548 12.3892 95.368 12.551 95.2176 12.7561C95.0672 12.9611 94.9533 13.1981 94.8758 13.467C94.8029 13.7359 94.7664 14.023 94.7664 14.3283ZM105.776 16.8166V13.2893C105.776 13.0249 105.728 12.7971 105.632 12.6057C105.537 12.4143 105.391 12.2661 105.195 12.1613C105.003 12.0565 104.762 12.0041 104.47 12.0041C104.201 12.0041 103.969 12.0497 103.773 12.1408C103.577 12.232 103.424 12.355 103.315 12.51C103.205 12.6649 103.151 12.8404 103.151 13.0363H101.51C101.51 12.7447 101.581 12.4621 101.722 12.1887C101.863 11.9152 102.068 11.6714 102.337 11.4572C102.606 11.243 102.927 11.0744 103.301 10.9514C103.675 10.8283 104.094 10.7668 104.559 10.7668C105.115 10.7668 105.607 10.8602 106.036 11.0471C106.468 11.2339 106.808 11.5165 107.054 11.8947C107.305 12.2684 107.43 12.7378 107.43 13.3029V16.591C107.43 16.9283 107.453 17.2313 107.498 17.5002C107.549 17.7645 107.619 17.9947 107.71 18.1906V18.3H106.022C105.944 18.1223 105.883 17.8967 105.837 17.6232C105.796 17.3453 105.776 17.0764 105.776 16.8166ZM106.015 13.802L106.029 14.8205H104.846C104.541 14.8205 104.272 14.8501 104.039 14.9094C103.807 14.9641 103.613 15.0461 103.458 15.1555C103.303 15.2648 103.187 15.397 103.11 15.552C103.032 15.7069 102.994 15.8824 102.994 16.0783C102.994 16.2743 103.039 16.4543 103.13 16.6184C103.221 16.7779 103.354 16.9032 103.527 16.9943C103.704 17.0855 103.919 17.1311 104.169 17.1311C104.507 17.1311 104.801 17.0627 105.051 16.926C105.306 16.7847 105.507 16.6138 105.653 16.4133C105.799 16.2082 105.876 16.0145 105.885 15.8322L106.418 16.5637C106.364 16.7505 106.27 16.951 106.138 17.1652C106.006 17.3794 105.833 17.5845 105.619 17.7805C105.409 17.9719 105.156 18.1291 104.86 18.2522C104.568 18.3752 104.231 18.4367 103.848 18.4367C103.365 18.4367 102.934 18.341 102.556 18.1496C102.178 17.9536 101.882 17.6916 101.667 17.3635C101.453 17.0308 101.346 16.6548 101.346 16.2355C101.346 15.8436 101.419 15.4973 101.565 15.1965C101.715 14.8911 101.934 14.6359 102.221 14.4309C102.513 14.2258 102.868 14.0708 103.287 13.966C103.707 13.8566 104.185 13.802 104.723 13.802H106.015ZM111.207 12.3117V18.3H109.56V10.9035H111.132L111.207 12.3117ZM113.47 10.8557L113.456 12.3869C113.356 12.3687 113.246 12.355 113.128 12.3459C113.014 12.3368 112.9 12.3322 112.786 12.3322C112.504 12.3322 112.255 12.3732 112.041 12.4553C111.827 12.5328 111.647 12.6467 111.501 12.7971C111.36 12.9429 111.25 13.1206 111.173 13.3303C111.095 13.5399 111.05 13.7746 111.036 14.0344L110.66 14.0617C110.66 13.5969 110.706 13.1662 110.797 12.7697C110.888 12.3732 111.025 12.0246 111.207 11.7238C111.394 11.423 111.626 11.1883 111.904 11.0197C112.187 10.8511 112.513 10.7668 112.882 10.7668C112.982 10.7668 113.089 10.7759 113.203 10.7941C113.322 10.8124 113.41 10.8329 113.47 10.8557ZM119.277 16.7688V7.8H120.931V18.3H119.434L119.277 16.7688ZM114.464 14.6838V14.5402C114.464 13.9797 114.531 13.4693 114.663 13.009C114.795 12.5441 114.986 12.1454 115.237 11.8127C115.488 11.4755 115.793 11.218 116.153 11.0402C116.513 10.8579 116.919 10.7668 117.37 10.7668C117.816 10.7668 118.208 10.8534 118.546 11.0266C118.883 11.1997 119.17 11.4481 119.407 11.7717C119.644 12.0907 119.833 12.4735 119.974 12.9201C120.115 13.3622 120.216 13.8544 120.275 14.3967V14.8547C120.216 15.3833 120.115 15.8664 119.974 16.3039C119.833 16.7414 119.644 17.1197 119.407 17.4387C119.17 17.7577 118.88 18.0038 118.539 18.177C118.201 18.3501 117.807 18.4367 117.356 18.4367C116.909 18.4367 116.506 18.3433 116.146 18.1564C115.791 17.9696 115.488 17.7076 115.237 17.3703C114.986 17.0331 114.795 16.6366 114.663 16.1809C114.531 15.7206 114.464 15.2216 114.464 14.6838ZM116.112 14.5402V14.6838C116.112 15.021 116.142 15.3355 116.201 15.6272C116.265 15.9188 116.363 16.1763 116.495 16.3996C116.627 16.6184 116.798 16.7915 117.007 16.9191C117.222 17.0422 117.477 17.1037 117.773 17.1037C118.147 17.1037 118.454 17.0217 118.696 16.8576C118.937 16.6936 119.127 16.4725 119.263 16.1945C119.405 15.912 119.5 15.5975 119.55 15.2512V14.0139C119.523 13.745 119.466 13.4943 119.379 13.2619C119.297 13.0295 119.186 12.8267 119.045 12.6535C118.903 12.4758 118.728 12.3391 118.518 12.2434C118.313 12.1431 118.069 12.093 117.787 12.093C117.486 12.093 117.231 12.1568 117.021 12.2844C116.811 12.412 116.638 12.5874 116.502 12.8107C116.369 13.0341 116.271 13.2938 116.208 13.59C116.144 13.8863 116.112 14.203 116.112 14.5402ZM127.802 8.34688H129.333L132.211 16.0236L135.082 8.34688H136.613L132.812 18.3H131.596L127.802 8.34688ZM127.104 8.34688H128.56L128.813 14.9914V18.3H127.104V8.34688ZM135.854 8.34688H137.317V18.3H135.601V14.9914L135.854 8.34688ZM141.354 10.9035V18.3H139.7V10.9035H141.354ZM139.59 8.96211C139.59 8.71146 139.672 8.5041 139.836 8.34004C140.005 8.17142 140.237 8.08711 140.534 8.08711C140.825 8.08711 141.055 8.17142 141.224 8.34004C141.393 8.5041 141.477 8.71146 141.477 8.96211C141.477 9.20821 141.393 9.41328 141.224 9.57735C141.055 9.74141 140.825 9.82344 140.534 9.82344C140.237 9.82344 140.005 9.74141 139.836 9.57735C139.672 9.41328 139.59 9.20821 139.59 8.96211ZM146.58 17.1242C146.849 17.1242 147.09 17.0718 147.305 16.967C147.523 16.8576 147.699 16.7072 147.831 16.5158C147.968 16.3244 148.043 16.1034 148.057 15.8527H149.608C149.599 16.3313 149.458 16.7665 149.185 17.1584C148.911 17.5503 148.549 17.8625 148.098 18.0949C147.646 18.3228 147.147 18.4367 146.601 18.4367C146.035 18.4367 145.543 18.341 145.124 18.1496C144.705 17.9536 144.356 17.6848 144.078 17.343C143.8 17.0012 143.59 16.607 143.449 16.1604C143.312 15.7137 143.244 15.2352 143.244 14.7248V14.4855C143.244 13.9751 143.312 13.4966 143.449 13.05C143.59 12.5988 143.8 12.2023 144.078 11.8605C144.356 11.5188 144.705 11.2522 145.124 11.0607C145.543 10.8648 146.033 10.7668 146.594 10.7668C147.186 10.7668 147.706 10.8853 148.152 11.1223C148.599 11.3547 148.95 11.6805 149.205 12.0998C149.465 12.5145 149.599 12.9976 149.608 13.549H148.057C148.043 13.2756 147.975 13.0295 147.852 12.8107C147.733 12.5874 147.564 12.4097 147.346 12.2775C147.132 12.1454 146.874 12.0793 146.573 12.0793C146.241 12.0793 145.965 12.1477 145.746 12.2844C145.527 12.4165 145.356 12.5988 145.233 12.8313C145.11 13.0591 145.021 13.3166 144.967 13.6037C144.917 13.8863 144.892 14.1802 144.892 14.4855V14.7248C144.892 15.0301 144.917 15.3264 144.967 15.6135C145.017 15.9006 145.104 16.1581 145.227 16.3859C145.354 16.6092 145.527 16.7893 145.746 16.926C145.965 17.0581 146.243 17.1242 146.58 17.1242ZM152.9 7.8V18.3H151.259V7.8H152.9ZM152.613 14.3283L152.08 14.3215C152.084 13.8111 152.155 13.3394 152.292 12.9064C152.433 12.4735 152.629 12.0975 152.879 11.7785C153.135 11.455 153.44 11.2066 153.796 11.0334C154.151 10.8557 154.545 10.7668 154.978 10.7668C155.343 10.7668 155.671 10.8169 155.963 10.9172C156.259 11.0175 156.514 11.1792 156.728 11.4025C156.942 11.6213 157.104 11.9084 157.213 12.2639C157.327 12.6148 157.384 13.0432 157.384 13.549V18.3H155.73V13.5354C155.73 13.1799 155.678 12.8973 155.573 12.6877C155.473 12.4781 155.324 12.3277 155.129 12.2365C154.933 12.1408 154.693 12.093 154.411 12.093C154.115 12.093 153.852 12.1522 153.625 12.2707C153.401 12.3892 153.214 12.551 153.064 12.7561C152.914 12.9611 152.8 13.1981 152.722 13.467C152.649 13.7359 152.613 14.023 152.613 14.3283ZM163.622 16.8166V13.2893C163.622 13.0249 163.574 12.7971 163.479 12.6057C163.383 12.4143 163.237 12.2661 163.041 12.1613C162.85 12.0565 162.608 12.0041 162.317 12.0041C162.048 12.0041 161.815 12.0497 161.619 12.1408C161.423 12.232 161.271 12.355 161.161 12.51C161.052 12.6649 160.997 12.8404 160.997 13.0363H159.357C159.357 12.7447 159.427 12.4621 159.569 12.1887C159.71 11.9152 159.915 11.6714 160.184 11.4572C160.453 11.243 160.774 11.0744 161.148 10.9514C161.521 10.8283 161.941 10.7668 162.405 10.7668C162.961 10.7668 163.454 10.8602 163.882 11.0471C164.315 11.2339 164.654 11.5165 164.901 11.8947C165.151 12.2684 165.277 12.7378 165.277 13.3029V16.591C165.277 16.9283 165.299 17.2313 165.345 17.5002C165.395 17.7645 165.466 17.9947 165.557 18.1906V18.3H163.868C163.791 18.1223 163.729 17.8967 163.684 17.6232C163.643 17.3453 163.622 17.0764 163.622 16.8166ZM163.862 13.802L163.875 14.8205H162.693C162.387 14.8205 162.118 14.8501 161.886 14.9094C161.654 14.9641 161.46 15.0461 161.305 15.1555C161.15 15.2648 161.034 15.397 160.956 15.552C160.879 15.7069 160.84 15.8824 160.84 16.0783C160.84 16.2743 160.886 16.4543 160.977 16.6184C161.068 16.7779 161.2 16.9032 161.373 16.9943C161.551 17.0855 161.765 17.1311 162.016 17.1311C162.353 17.1311 162.647 17.0627 162.898 16.926C163.153 16.7847 163.353 16.6138 163.499 16.4133C163.645 16.2082 163.723 16.0145 163.732 15.8322L164.265 16.5637C164.21 16.7505 164.117 16.951 163.985 17.1652C163.852 17.3794 163.679 17.5845 163.465 17.7805C163.255 17.9719 163.002 18.1291 162.706 18.2522C162.415 18.3752 162.077 18.4367 161.695 18.4367C161.211 18.4367 160.781 18.341 160.403 18.1496C160.024 17.9536 159.728 17.6916 159.514 17.3635C159.3 17.0308 159.193 16.6548 159.193 16.2355C159.193 15.8436 159.265 15.4973 159.411 15.1965C159.562 14.8911 159.78 14.6359 160.068 14.4309C160.359 14.2258 160.715 14.0708 161.134 13.966C161.553 13.8566 162.032 13.802 162.57 13.802H163.862ZM170.66 18.4367C170.113 18.4367 169.619 18.3479 169.177 18.1701C168.739 17.9878 168.365 17.7349 168.055 17.4113C167.75 17.0878 167.515 16.7072 167.351 16.2697C167.187 15.8322 167.105 15.3605 167.105 14.8547V14.5813C167.105 14.0025 167.19 13.4784 167.358 13.009C167.527 12.5396 167.762 12.1385 168.062 11.8059C168.363 11.4686 168.719 11.2111 169.129 11.0334C169.539 10.8557 169.983 10.7668 170.462 10.7668C170.99 10.7668 171.453 10.8557 171.849 11.0334C172.246 11.2111 172.574 11.4618 172.834 11.7854C173.098 12.1044 173.294 12.4849 173.422 12.927C173.554 13.369 173.62 13.8566 173.62 14.3898V15.0939H167.905V13.9113H171.993V13.7814C171.984 13.4852 171.925 13.2072 171.815 12.9475C171.71 12.6877 171.549 12.4781 171.33 12.3186C171.111 12.1591 170.819 12.0793 170.455 12.0793C170.181 12.0793 169.938 12.1385 169.723 12.257C169.514 12.371 169.338 12.5373 169.197 12.7561C169.056 12.9748 168.946 13.2391 168.869 13.549C168.796 13.8544 168.76 14.1984 168.76 14.5813V14.8547C168.76 15.1783 168.803 15.479 168.889 15.757C168.981 16.0305 169.113 16.2697 169.286 16.4748C169.459 16.6799 169.669 16.8417 169.915 16.9602C170.161 17.0741 170.441 17.1311 170.756 17.1311C171.152 17.1311 171.505 17.0513 171.815 16.8918C172.125 16.7323 172.394 16.5067 172.622 16.215L173.49 17.0559C173.331 17.2883 173.123 17.5116 172.868 17.7258C172.613 17.9354 172.301 18.1063 171.931 18.2385C171.567 18.3706 171.143 18.4367 170.66 18.4367ZM177.069 7.8V18.3H175.414V7.8H177.069ZM183.423 16.2971C183.423 16.133 183.382 15.9849 183.3 15.8527C183.218 15.716 183.061 15.593 182.828 15.4836C182.6 15.3742 182.263 15.274 181.816 15.1828C181.424 15.0962 181.064 14.9937 180.736 14.8752C180.413 14.7522 180.135 14.604 179.902 14.4309C179.67 14.2577 179.49 14.0526 179.362 13.8156C179.235 13.5786 179.171 13.3052 179.171 12.9953C179.171 12.6945 179.237 12.4097 179.369 12.1408C179.501 11.8719 179.69 11.635 179.937 11.4299C180.183 11.2248 180.481 11.063 180.832 10.9445C181.188 10.826 181.584 10.7668 182.021 10.7668C182.641 10.7668 183.172 10.8716 183.614 11.0813C184.061 11.2863 184.403 11.5666 184.64 11.9221C184.877 12.273 184.995 12.6695 184.995 13.1115H183.348C183.348 12.9156 183.298 12.7333 183.197 12.5647C183.102 12.3915 182.956 12.2525 182.76 12.1477C182.564 12.0383 182.318 11.9836 182.021 11.9836C181.739 11.9836 181.504 12.0292 181.317 12.1203C181.135 12.2069 180.998 12.3208 180.907 12.4621C180.821 12.6034 180.777 12.7583 180.777 12.927C180.777 13.05 180.8 13.1617 180.846 13.2619C180.896 13.3576 180.978 13.4465 181.092 13.5285C181.206 13.606 181.361 13.6789 181.557 13.7473C181.757 13.8156 182.008 13.8817 182.309 13.9455C182.874 14.064 183.359 14.2167 183.765 14.4035C184.175 14.5858 184.489 14.8228 184.708 15.1145C184.927 15.4016 185.036 15.7661 185.036 16.2082C185.036 16.5363 184.965 16.8371 184.824 17.1105C184.688 17.3794 184.487 17.6141 184.223 17.8147C183.958 18.0106 183.642 18.1633 183.272 18.2727C182.908 18.382 182.498 18.4367 182.042 18.4367C181.372 18.4367 180.805 18.3182 180.34 18.0813C179.875 17.8397 179.522 17.5321 179.28 17.1584C179.043 16.7801 178.925 16.3882 178.925 15.9826H180.518C180.536 16.288 180.62 16.5318 180.771 16.7141C180.925 16.8918 181.117 17.0217 181.345 17.1037C181.577 17.1812 181.816 17.2199 182.062 17.2199C182.359 17.2199 182.607 17.1812 182.808 17.1037C183.008 17.0217 183.161 16.9123 183.266 16.7756C183.37 16.6343 183.423 16.4748 183.423 16.2971ZM186.564 14.6838V14.5266C186.564 13.9934 186.642 13.4989 186.796 13.0432C186.951 12.5829 187.175 12.1841 187.466 11.8469C187.763 11.5051 188.123 11.2408 188.546 11.0539C188.975 10.8625 189.458 10.7668 189.996 10.7668C190.538 10.7668 191.021 10.8625 191.445 11.0539C191.873 11.2408 192.236 11.5051 192.532 11.8469C192.828 12.1841 193.054 12.5829 193.209 13.0432C193.364 13.4989 193.441 13.9934 193.441 14.5266V14.6838C193.441 15.217 193.364 15.7115 193.209 16.1672C193.054 16.6229 192.828 17.0217 192.532 17.3635C192.236 17.7007 191.876 17.965 191.452 18.1564C191.028 18.3433 190.547 18.4367 190.009 18.4367C189.467 18.4367 188.982 18.3433 188.553 18.1564C188.129 17.965 187.769 17.7007 187.473 17.3635C187.177 17.0217 186.951 16.6229 186.796 16.1672C186.642 15.7115 186.564 15.217 186.564 14.6838ZM188.212 14.5266V14.6838C188.212 15.0165 188.246 15.3309 188.314 15.6272C188.382 15.9234 188.49 16.1831 188.635 16.4064C188.781 16.6298 188.968 16.8052 189.196 16.9328C189.424 17.0604 189.695 17.1242 190.009 17.1242C190.315 17.1242 190.579 17.0604 190.802 16.9328C191.03 16.8052 191.217 16.6298 191.363 16.4064C191.509 16.1831 191.616 15.9234 191.684 15.6272C191.757 15.3309 191.794 15.0165 191.794 14.6838V14.5266C191.794 14.1984 191.757 13.8885 191.684 13.5969C191.616 13.3007 191.506 13.0386 191.356 12.8107C191.21 12.5829 191.023 12.4051 190.796 12.2775C190.572 12.1454 190.306 12.0793 189.996 12.0793C189.686 12.0793 189.417 12.1454 189.189 12.2775C188.966 12.4051 188.781 12.5829 188.635 12.8107C188.49 13.0386 188.382 13.3007 188.314 13.5969C188.246 13.8885 188.212 14.1984 188.212 14.5266ZM196.856 12.4826V18.3H195.208V10.9035H196.76L196.856 12.4826ZM196.562 14.3283L196.029 14.3215C196.033 13.7974 196.106 13.3166 196.247 12.8791C196.393 12.4416 196.594 12.0656 196.849 11.7512C197.109 11.4367 197.418 11.1952 197.779 11.0266C198.139 10.8534 198.54 10.7668 198.982 10.7668C199.337 10.7668 199.658 10.8169 199.946 10.9172C200.237 11.0129 200.486 11.1701 200.691 11.3889C200.9 11.6076 201.06 11.8925 201.169 12.2434C201.279 12.5897 201.333 13.0158 201.333 13.5217V18.3H199.679V13.5148C199.679 13.1594 199.627 12.8791 199.522 12.674C199.421 12.4644 199.273 12.3163 199.077 12.2297C198.886 12.1385 198.647 12.093 198.36 12.093C198.077 12.093 197.824 12.1522 197.601 12.2707C197.377 12.3892 197.188 12.551 197.033 12.7561C196.883 12.9611 196.767 13.1981 196.685 13.467C196.603 13.7359 196.562 14.023 196.562 14.3283Z" fill="#1E1E1E"/>
<defs>
<clipPath id="clip0_1_989">
<rect width="26" height="26" fill="white" transform="translate(0 0.300003)"/>
</clipPath>
</defs>
</svg>
