<svg width="22" height="138" viewBox="0 0 22 138" fill="none" xmlns="http://www.w3.org/2000/svg">
<path d="M7.03945 8.12891V9.01953H0.875391V8.38086L4.6957 2.46875H5.58047L4.63125 4.17969L2.10586 8.12891H7.03945ZM5.85 2.46875V11H4.76602V2.46875H5.85ZM13.5793 6.05469V7.35547C13.5793 8.05469 13.5168 8.64453 13.3918 9.125C13.2668 9.60547 13.0871 9.99219 12.8527 10.2852C12.6184 10.5781 12.3352 10.791 12.0031 10.9238C11.675 11.0527 11.3039 11.1172 10.8898 11.1172C10.5617 11.1172 10.259 11.0762 9.98164 10.9941C9.7043 10.9121 9.4543 10.7812 9.23164 10.6016C9.01289 10.418 8.82539 10.1797 8.66914 9.88672C8.51289 9.59375 8.39375 9.23828 8.31172 8.82031C8.22969 8.40234 8.18867 7.91406 8.18867 7.35547V6.05469C8.18867 5.35547 8.25117 4.76953 8.37617 4.29688C8.50508 3.82422 8.68672 3.44531 8.92109 3.16016C9.15547 2.87109 9.43672 2.66406 9.76484 2.53906C10.0969 2.41406 10.468 2.35156 10.8781 2.35156C11.2102 2.35156 11.5148 2.39258 11.7922 2.47461C12.0734 2.55273 12.3234 2.67969 12.5422 2.85547C12.7609 3.02734 12.9465 3.25781 13.0988 3.54688C13.2551 3.83203 13.3742 4.18164 13.4563 4.5957C13.5383 5.00977 13.5793 5.49609 13.5793 6.05469ZM12.4895 7.53125V5.87305C12.4895 5.49023 12.466 5.1543 12.4191 4.86523C12.3762 4.57227 12.3117 4.32227 12.2258 4.11523C12.1398 3.9082 12.0305 3.74023 11.8977 3.61133C11.7688 3.48242 11.6184 3.38867 11.4465 3.33008C11.2785 3.26758 11.0891 3.23633 10.8781 3.23633C10.6203 3.23633 10.3918 3.28516 10.1926 3.38281C9.99336 3.47656 9.82539 3.62695 9.68867 3.83398C9.55586 4.04102 9.4543 4.3125 9.38398 4.64844C9.31367 4.98438 9.27852 5.39258 9.27852 5.87305V7.53125C9.27852 7.91406 9.3 8.25195 9.34297 8.54492C9.38984 8.83789 9.4582 9.0918 9.54805 9.30664C9.63789 9.51758 9.74727 9.69141 9.87617 9.82812C10.0051 9.96484 10.1535 10.0664 10.3215 10.1328C10.4934 10.1953 10.6828 10.2266 10.8898 10.2266C11.1555 10.2266 11.3879 10.1758 11.5871 10.0742C11.7863 9.97266 11.9523 9.81445 12.0852 9.59961C12.2219 9.38086 12.3234 9.10156 12.3898 8.76172C12.4563 8.41797 12.4895 8.00781 12.4895 7.53125ZM16.5859 2.46875V11H15.4551V2.46875H16.5859ZM21.7363 2.46875L18.1914 6.44727L16.1992 8.51562L16.0117 7.30859L17.5117 5.65625L20.377 2.46875H21.7363ZM20.6465 11L17.4883 6.83984L18.1621 5.94336L21.9941 11H20.6465Z" fill="#A0AEC0"/>
<path d="M2.85586 37.2012H3.6293C4.0082 37.2012 4.3207 37.1387 4.5668 37.0137C4.8168 36.8848 5.00234 36.7109 5.12344 36.4922C5.24844 36.2695 5.31094 36.0195 5.31094 35.7422C5.31094 35.4141 5.25625 35.1387 5.14688 34.916C5.0375 34.6934 4.87344 34.5254 4.65469 34.4121C4.43594 34.2988 4.15859 34.2422 3.82266 34.2422C3.51797 34.2422 3.24844 34.3027 3.01406 34.4238C2.78359 34.541 2.60195 34.709 2.46914 34.9277C2.34023 35.1465 2.27578 35.4043 2.27578 35.7012H1.1918C1.1918 35.2676 1.30117 34.873 1.51992 34.5176C1.73867 34.1621 2.04531 33.8789 2.43984 33.668C2.83828 33.457 3.29922 33.3516 3.82266 33.3516C4.33828 33.3516 4.78945 33.4434 5.17617 33.627C5.56289 33.8066 5.86367 34.0762 6.07852 34.4355C6.29336 34.791 6.40078 35.2344 6.40078 35.7656C6.40078 35.9805 6.35 36.2109 6.24844 36.457C6.15078 36.6992 5.99648 36.9258 5.78555 37.1367C5.57852 37.3477 5.30898 37.5215 4.97695 37.6582C4.64492 37.791 4.24648 37.8574 3.78164 37.8574H2.85586V37.2012ZM2.85586 38.0918V37.4414H3.78164C4.32461 37.4414 4.77383 37.5059 5.1293 37.6348C5.48477 37.7637 5.76406 37.9355 5.96719 38.1504C6.17422 38.3652 6.31875 38.6016 6.40078 38.8594C6.48672 39.1133 6.52969 39.3672 6.52969 39.6211C6.52969 40.0195 6.46133 40.373 6.32461 40.6816C6.1918 40.9902 6.00234 41.252 5.75625 41.4668C5.51406 41.6816 5.22891 41.8438 4.90078 41.9531C4.57266 42.0625 4.21523 42.1172 3.82852 42.1172C3.45742 42.1172 3.10781 42.0645 2.77969 41.959C2.45547 41.8535 2.16836 41.7012 1.91836 41.502C1.66836 41.2988 1.47305 41.0508 1.33242 40.7578C1.1918 40.4609 1.12148 40.123 1.12148 39.7441H2.20547C2.20547 40.041 2.26992 40.3008 2.39883 40.5234C2.53164 40.7461 2.71914 40.9199 2.96133 41.0449C3.20742 41.166 3.49648 41.2266 3.82852 41.2266C4.16055 41.2266 4.4457 41.1699 4.68398 41.0566C4.92617 40.9395 5.11172 40.7637 5.24063 40.5293C5.37344 40.2949 5.43984 40 5.43984 39.6445C5.43984 39.2891 5.36563 38.998 5.21719 38.7715C5.06875 38.541 4.85781 38.3711 4.58438 38.2617C4.31484 38.1484 3.99648 38.0918 3.6293 38.0918H2.85586ZM13.5793 37.0547V38.3555C13.5793 39.0547 13.5168 39.6445 13.3918 40.125C13.2668 40.6055 13.0871 40.9922 12.8527 41.2852C12.6184 41.5781 12.3352 41.791 12.0031 41.9238C11.675 42.0527 11.3039 42.1172 10.8898 42.1172C10.5617 42.1172 10.259 42.0762 9.98164 41.9941C9.7043 41.9121 9.4543 41.7812 9.23164 41.6016C9.01289 41.418 8.82539 41.1797 8.66914 40.8867C8.51289 40.5938 8.39375 40.2383 8.31172 39.8203C8.22969 39.4023 8.18867 38.9141 8.18867 38.3555V37.0547C8.18867 36.3555 8.25117 35.7695 8.37617 35.2969C8.50508 34.8242 8.68672 34.4453 8.92109 34.1602C9.15547 33.8711 9.43672 33.6641 9.76484 33.5391C10.0969 33.4141 10.468 33.3516 10.8781 33.3516C11.2102 33.3516 11.5148 33.3926 11.7922 33.4746C12.0734 33.5527 12.3234 33.6797 12.5422 33.8555C12.7609 34.0273 12.9465 34.2578 13.0988 34.5469C13.2551 34.832 13.3742 35.1816 13.4563 35.5957C13.5383 36.0098 13.5793 36.4961 13.5793 37.0547ZM12.4895 38.5312V36.873C12.4895 36.4902 12.466 36.1543 12.4191 35.8652C12.3762 35.5723 12.3117 35.3223 12.2258 35.1152C12.1398 34.9082 12.0305 34.7402 11.8977 34.6113C11.7688 34.4824 11.6184 34.3887 11.4465 34.3301C11.2785 34.2676 11.0891 34.2363 10.8781 34.2363C10.6203 34.2363 10.3918 34.2852 10.1926 34.3828C9.99336 34.4766 9.82539 34.627 9.68867 34.834C9.55586 35.041 9.4543 35.3125 9.38398 35.6484C9.31367 35.9844 9.27852 36.3926 9.27852 36.873V38.5312C9.27852 38.9141 9.3 39.252 9.34297 39.5449C9.38984 39.8379 9.4582 40.0918 9.54805 40.3066C9.63789 40.5176 9.74727 40.6914 9.87617 40.8281C10.0051 40.9648 10.1535 41.0664 10.3215 41.1328C10.4934 41.1953 10.6828 41.2266 10.8898 41.2266C11.1555 41.2266 11.3879 41.1758 11.5871 41.0742C11.7863 40.9727 11.9523 40.8145 12.0852 40.5996C12.2219 40.3809 12.3234 40.1016 12.3898 39.7617C12.4563 39.418 12.4895 39.0078 12.4895 38.5312ZM16.5859 33.4688V42H15.4551V33.4688H16.5859ZM21.7363 33.4688L18.1914 37.4473L16.1992 39.5156L16.0117 38.3086L17.5117 36.6562L20.377 33.4688H21.7363ZM20.6465 42L17.4883 37.8398L18.1621 36.9434L21.9941 42H20.6465Z" fill="#A0AEC0"/>
<path d="M6.86367 72.1094V73H1.27969V72.2207L4.07461 69.1094C4.41836 68.7266 4.68398 68.4023 4.87148 68.1367C5.06289 67.8672 5.1957 67.627 5.26992 67.416C5.34805 67.2012 5.38711 66.9824 5.38711 66.7598C5.38711 66.4785 5.32852 66.2246 5.21133 65.998C5.09805 65.7676 4.93008 65.584 4.70742 65.4473C4.48477 65.3105 4.21523 65.2422 3.89883 65.2422C3.51992 65.2422 3.20352 65.3164 2.94961 65.4648C2.69961 65.6094 2.51211 65.8125 2.38711 66.0742C2.26211 66.3359 2.19961 66.6367 2.19961 66.9766H1.11563C1.11563 66.4961 1.22109 66.0566 1.43203 65.6582C1.64297 65.2598 1.95547 64.9434 2.36953 64.709C2.78359 64.4707 3.29336 64.3516 3.89883 64.3516C4.43789 64.3516 4.89883 64.4473 5.28164 64.6387C5.66445 64.8262 5.95742 65.0918 6.16055 65.4355C6.36758 65.7754 6.47109 66.1738 6.47109 66.6309C6.47109 66.8809 6.42813 67.1348 6.34219 67.3926C6.26016 67.6465 6.14492 67.9004 5.99648 68.1543C5.85195 68.4082 5.68203 68.6582 5.48672 68.9043C5.29531 69.1504 5.09023 69.3926 4.87148 69.6309L2.58633 72.1094H6.86367ZM13.5793 68.0547V69.3555C13.5793 70.0547 13.5168 70.6445 13.3918 71.125C13.2668 71.6055 13.0871 71.9922 12.8527 72.2852C12.6184 72.5781 12.3352 72.791 12.0031 72.9238C11.675 73.0527 11.3039 73.1172 10.8898 73.1172C10.5617 73.1172 10.259 73.0762 9.98164 72.9941C9.7043 72.9121 9.4543 72.7812 9.23164 72.6016C9.01289 72.418 8.82539 72.1797 8.66914 71.8867C8.51289 71.5938 8.39375 71.2383 8.31172 70.8203C8.22969 70.4023 8.18867 69.9141 8.18867 69.3555V68.0547C8.18867 67.3555 8.25117 66.7695 8.37617 66.2969C8.50508 65.8242 8.68672 65.4453 8.92109 65.1602C9.15547 64.8711 9.43672 64.6641 9.76484 64.5391C10.0969 64.4141 10.468 64.3516 10.8781 64.3516C11.2102 64.3516 11.5148 64.3926 11.7922 64.4746C12.0734 64.5527 12.3234 64.6797 12.5422 64.8555C12.7609 65.0273 12.9465 65.2578 13.0988 65.5469C13.2551 65.832 13.3742 66.1816 13.4563 66.5957C13.5383 67.0098 13.5793 67.4961 13.5793 68.0547ZM12.4895 69.5312V67.873C12.4895 67.4902 12.466 67.1543 12.4191 66.8652C12.3762 66.5723 12.3117 66.3223 12.2258 66.1152C12.1398 65.9082 12.0305 65.7402 11.8977 65.6113C11.7688 65.4824 11.6184 65.3887 11.4465 65.3301C11.2785 65.2676 11.0891 65.2363 10.8781 65.2363C10.6203 65.2363 10.3918 65.2852 10.1926 65.3828C9.99336 65.4766 9.82539 65.627 9.68867 65.834C9.55586 66.041 9.4543 66.3125 9.38398 66.6484C9.31367 66.9844 9.27852 67.3926 9.27852 67.873V69.5312C9.27852 69.9141 9.3 70.252 9.34297 70.5449C9.38984 70.8379 9.4582 71.0918 9.54805 71.3066C9.63789 71.5176 9.74727 71.6914 9.87617 71.8281C10.0051 71.9648 10.1535 72.0664 10.3215 72.1328C10.4934 72.1953 10.6828 72.2266 10.8898 72.2266C11.1555 72.2266 11.3879 72.1758 11.5871 72.0742C11.7863 71.9727 11.9523 71.8145 12.0852 71.5996C12.2219 71.3809 12.3234 71.1016 12.3898 70.7617C12.4563 70.418 12.4895 70.0078 12.4895 69.5312ZM16.5859 64.4688V73H15.4551V64.4688H16.5859ZM21.7363 64.4688L18.1914 68.4473L16.1992 70.5156L16.0117 69.3086L17.5117 67.6562L20.377 64.4688H21.7363ZM20.6465 73L17.4883 68.8398L18.1621 67.9434L21.9941 73H20.6465Z" fill="#A0AEC0"/>
<path d="M4.83633 95.4219V104H3.75234V96.7754L1.5668 97.5723V96.5938L4.66641 95.4219H4.83633ZM13.5793 99.0547V100.355C13.5793 101.055 13.5168 101.645 13.3918 102.125C13.2668 102.605 13.0871 102.992 12.8527 103.285C12.6184 103.578 12.3352 103.791 12.0031 103.924C11.675 104.053 11.3039 104.117 10.8898 104.117C10.5617 104.117 10.259 104.076 9.98164 103.994C9.7043 103.912 9.4543 103.781 9.23164 103.602C9.01289 103.418 8.82539 103.18 8.66914 102.887C8.51289 102.594 8.39375 102.238 8.31172 101.82C8.22969 101.402 8.18867 100.914 8.18867 100.355V99.0547C8.18867 98.3555 8.25117 97.7695 8.37617 97.2969C8.50508 96.8242 8.68672 96.4453 8.92109 96.1602C9.15547 95.8711 9.43672 95.6641 9.76484 95.5391C10.0969 95.4141 10.468 95.3516 10.8781 95.3516C11.2102 95.3516 11.5148 95.3926 11.7922 95.4746C12.0734 95.5527 12.3234 95.6797 12.5422 95.8555C12.7609 96.0273 12.9465 96.2578 13.0988 96.5469C13.2551 96.832 13.3742 97.1816 13.4563 97.5957C13.5383 98.0098 13.5793 98.4961 13.5793 99.0547ZM12.4895 100.531V98.873C12.4895 98.4902 12.466 98.1543 12.4191 97.8652C12.3762 97.5723 12.3117 97.3223 12.2258 97.1152C12.1398 96.9082 12.0305 96.7402 11.8977 96.6113C11.7688 96.4824 11.6184 96.3887 11.4465 96.3301C11.2785 96.2676 11.0891 96.2363 10.8781 96.2363C10.6203 96.2363 10.3918 96.2852 10.1926 96.3828C9.99336 96.4766 9.82539 96.627 9.68867 96.834C9.55586 97.041 9.4543 97.3125 9.38398 97.6484C9.31367 97.9844 9.27852 98.3926 9.27852 98.873V100.531C9.27852 100.914 9.3 101.252 9.34297 101.545C9.38984 101.838 9.4582 102.092 9.54805 102.307C9.63789 102.518 9.74727 102.691 9.87617 102.828C10.0051 102.965 10.1535 103.066 10.3215 103.133C10.4934 103.195 10.6828 103.227 10.8898 103.227C11.1555 103.227 11.3879 103.176 11.5871 103.074C11.7863 102.973 11.9523 102.814 12.0852 102.6C12.2219 102.381 12.3234 102.102 12.3898 101.762C12.4563 101.418 12.4895 101.008 12.4895 100.531ZM16.5859 95.4688V104H15.4551V95.4688H16.5859ZM21.7363 95.4688L18.1914 99.4473L16.1992 101.516L16.0117 100.309L17.5117 98.6562L20.377 95.4688H21.7363ZM20.6465 104L17.4883 99.8398L18.1621 98.9434L21.9941 104H20.6465Z" fill="#A0AEC0"/>
<path d="M21.3145 130.055V131.355C21.3145 132.055 21.252 132.645 21.127 133.125C21.002 133.605 20.8223 133.992 20.5879 134.285C20.3535 134.578 20.0703 134.791 19.7383 134.924C19.4102 135.053 19.0391 135.117 18.625 135.117C18.2969 135.117 17.9941 135.076 17.7168 134.994C17.4395 134.912 17.1895 134.781 16.9668 134.602C16.748 134.418 16.5605 134.18 16.4043 133.887C16.248 133.594 16.1289 133.238 16.0469 132.82C15.9648 132.402 15.9238 131.914 15.9238 131.355V130.055C15.9238 129.355 15.9863 128.77 16.1113 128.297C16.2402 127.824 16.4219 127.445 16.6562 127.16C16.8906 126.871 17.1719 126.664 17.5 126.539C17.832 126.414 18.2031 126.352 18.6133 126.352C18.9453 126.352 19.25 126.393 19.5273 126.475C19.8086 126.553 20.0586 126.68 20.2773 126.855C20.4961 127.027 20.6816 127.258 20.834 127.547C20.9902 127.832 21.1094 128.182 21.1914 128.596C21.2734 129.01 21.3145 129.496 21.3145 130.055ZM20.2246 131.531V129.873C20.2246 129.49 20.2012 129.154 20.1543 128.865C20.1113 128.572 20.0469 128.322 19.9609 128.115C19.875 127.908 19.7656 127.74 19.6328 127.611C19.5039 127.482 19.3535 127.389 19.1816 127.33C19.0137 127.268 18.8242 127.236 18.6133 127.236C18.3555 127.236 18.127 127.285 17.9277 127.383C17.7285 127.477 17.5605 127.627 17.4238 127.834C17.291 128.041 17.1895 128.312 17.1191 128.648C17.0488 128.984 17.0137 129.393 17.0137 129.873V131.531C17.0137 131.914 17.0352 132.252 17.0781 132.545C17.125 132.838 17.1934 133.092 17.2832 133.307C17.373 133.518 17.4824 133.691 17.6113 133.828C17.7402 133.965 17.8887 134.066 18.0566 134.133C18.2285 134.195 18.418 134.227 18.625 134.227C18.8906 134.227 19.123 134.176 19.3223 134.074C19.5215 133.973 19.6875 133.814 19.8203 133.6C19.957 133.381 20.0586 133.102 20.125 132.762C20.1914 132.418 20.2246 132.008 20.2246 131.531Z" fill="#A0AEC0"/>
</svg>
