<svg width="403" height="180" viewBox="0 0 403 180" fill="none" xmlns="http://www.w3.org/2000/svg">
<rect x="3" y="3" width="116" height="136" fill="#1DB385"/>
<rect x="1.5" y="1.5" width="119" height="139" stroke="#1DB385" stroke-opacity="0.1" stroke-width="3"/>
<path d="M7.83984 152.929L4.54492 162H3.19824L6.99219 152.047H7.86035L7.83984 152.929ZM10.6016 162L7.2998 152.929L7.2793 152.047H8.14746L11.9551 162H10.6016ZM10.4307 158.315V159.396H4.83887V158.315H10.4307ZM17.4593 160.038C17.4593 159.856 17.4183 159.687 17.3363 159.532C17.2588 159.373 17.097 159.229 16.8509 159.102C16.6094 158.969 16.2448 158.855 15.7572 158.76C15.347 158.673 14.9756 158.571 14.6429 158.452C14.3148 158.334 14.0345 158.19 13.8021 158.021C13.5742 157.853 13.3988 157.655 13.2757 157.427C13.1527 157.199 13.0912 156.932 13.0912 156.627C13.0912 156.335 13.155 156.06 13.2826 155.8C13.4147 155.54 13.5993 155.31 13.8363 155.109C14.0778 154.909 14.3672 154.752 14.7044 154.638C15.0417 154.524 15.4177 154.467 15.8324 154.467C16.4248 154.467 16.9307 154.572 17.3499 154.781C17.7692 154.991 18.0905 155.271 18.3138 155.622C18.5371 155.968 18.6488 156.354 18.6488 156.777H17.3841C17.3841 156.572 17.3226 156.374 17.1996 156.183C17.0811 155.987 16.9056 155.825 16.6732 155.697C16.4453 155.57 16.165 155.506 15.8324 155.506C15.4815 155.506 15.1966 155.561 14.9779 155.67C14.7637 155.775 14.6065 155.909 14.5062 156.073C14.4105 156.237 14.3626 156.41 14.3626 156.593C14.3626 156.729 14.3854 156.853 14.431 156.962C14.4811 157.067 14.5677 157.165 14.6908 157.256C14.8138 157.342 14.987 157.424 15.2103 157.502C15.4336 157.579 15.7184 157.657 16.0648 157.734C16.6709 157.871 17.1699 158.035 17.5619 158.227C17.9538 158.418 18.2455 158.653 18.4369 158.931C18.6283 159.209 18.724 159.546 18.724 159.942C18.724 160.266 18.6556 160.562 18.5189 160.831C18.3867 161.1 18.193 161.332 17.9378 161.528C17.6872 161.72 17.3864 161.87 17.0355 161.979C16.6891 162.084 16.2995 162.137 15.8665 162.137C15.2149 162.137 14.6634 162.021 14.2122 161.788C13.7611 161.556 13.4193 161.255 13.1869 160.886C12.9544 160.517 12.8382 160.127 12.8382 159.717H14.1097C14.1279 160.063 14.2282 160.339 14.4105 160.544C14.5928 160.744 14.8161 160.888 15.0804 160.975C15.3447 161.057 15.6068 161.098 15.8665 161.098C16.2129 161.098 16.5023 161.052 16.7347 160.961C16.9717 160.87 17.1517 160.744 17.2747 160.585C17.3978 160.425 17.4593 160.243 17.4593 160.038ZM24.7477 160.038C24.7477 159.856 24.7067 159.687 24.6247 159.532C24.5472 159.373 24.3854 159.229 24.1393 159.102C23.8978 158.969 23.5332 158.855 23.0456 158.76C22.6354 158.673 22.264 158.571 21.9313 158.452C21.6032 158.334 21.3229 158.19 21.0905 158.021C20.8627 157.853 20.6872 157.655 20.5641 157.427C20.4411 157.199 20.3796 156.932 20.3796 156.627C20.3796 156.335 20.4434 156.06 20.571 155.8C20.7031 155.54 20.8877 155.31 21.1247 155.109C21.3662 154.909 21.6556 154.752 21.9929 154.638C22.3301 154.524 22.7061 154.467 23.1208 154.467C23.7132 154.467 24.2191 154.572 24.6384 154.781C25.0576 154.991 25.3789 155.271 25.6022 155.622C25.8255 155.968 25.9372 156.354 25.9372 156.777H24.6725C24.6725 156.572 24.611 156.374 24.488 156.183C24.3695 155.987 24.194 155.825 23.9616 155.697C23.7337 155.57 23.4535 155.506 23.1208 155.506C22.7699 155.506 22.485 155.561 22.2663 155.67C22.0521 155.775 21.8949 155.909 21.7946 156.073C21.6989 156.237 21.6511 156.41 21.6511 156.593C21.6511 156.729 21.6738 156.853 21.7194 156.962C21.7696 157.067 21.8561 157.165 21.9792 157.256C22.1022 157.342 22.2754 157.424 22.4987 157.502C22.722 157.579 23.0069 157.657 23.3532 157.734C23.9593 157.871 24.4584 158.035 24.8503 158.227C25.2422 158.418 25.5339 158.653 25.7253 158.931C25.9167 159.209 26.0124 159.546 26.0124 159.942C26.0124 160.266 25.944 160.562 25.8073 160.831C25.6752 161.1 25.4815 161.332 25.2263 161.528C24.9756 161.72 24.6748 161.87 24.3239 161.979C23.9776 162.084 23.5879 162.137 23.155 162.137C22.5033 162.137 21.9518 162.021 21.5007 161.788C21.0495 161.556 20.7077 161.255 20.4753 160.886C20.2429 160.517 20.1266 160.127 20.1266 159.717H21.3981C21.4164 160.063 21.5166 160.339 21.6989 160.544C21.8812 160.744 22.1045 160.888 22.3688 160.975C22.6332 161.057 22.8952 161.098 23.155 161.098C23.5013 161.098 23.7907 161.052 24.0231 160.961C24.2601 160.87 24.4401 160.744 24.5632 160.585C24.6862 160.425 24.7477 160.243 24.7477 160.038ZM30.7989 162.137C30.2839 162.137 29.8168 162.05 29.3975 161.877C28.9828 161.699 28.625 161.451 28.3242 161.132C28.028 160.813 27.8002 160.435 27.6407 159.997C27.4812 159.56 27.4014 159.081 27.4014 158.562V158.274C27.4014 157.673 27.4903 157.137 27.668 156.668C27.8457 156.194 28.0873 155.793 28.3926 155.465C28.6979 155.137 29.0443 154.888 29.4317 154.72C29.819 154.551 30.2201 154.467 30.6348 154.467C31.1634 154.467 31.6192 154.558 32.002 154.74C32.3894 154.923 32.7061 155.178 32.9522 155.506C33.1983 155.829 33.3806 156.212 33.4991 156.654C33.6175 157.092 33.6768 157.57 33.6768 158.09V158.657H28.1534V157.625H32.4121V157.529C32.3939 157.201 32.3256 156.882 32.2071 156.572C32.0931 156.262 31.9108 156.007 31.6602 155.807C31.4095 155.606 31.0677 155.506 30.6348 155.506C30.3477 155.506 30.0834 155.567 29.8418 155.69C29.6003 155.809 29.3929 155.987 29.2198 156.224C29.0466 156.461 28.9121 156.75 28.8164 157.092C28.7207 157.434 28.6729 157.828 28.6729 158.274V158.562C28.6729 158.912 28.7207 159.243 28.8164 159.553C28.9167 159.858 29.0603 160.127 29.2471 160.359C29.4385 160.592 29.6687 160.774 29.9375 160.906C30.211 161.038 30.5209 161.104 30.8672 161.104C31.3138 161.104 31.6921 161.013 32.002 160.831C32.3119 160.649 32.583 160.405 32.8155 160.1L33.5811 160.708C33.4216 160.95 33.2188 161.18 32.9727 161.398C32.7266 161.617 32.4235 161.795 32.0635 161.932C31.708 162.068 31.2865 162.137 30.7989 162.137ZM38.306 154.604V155.574H34.307V154.604H38.306ZM35.6605 152.806H36.9252V160.168C36.9252 160.419 36.9639 160.608 37.0414 160.735C37.1189 160.863 37.2191 160.947 37.3422 160.988C37.4652 161.029 37.5974 161.05 37.7386 161.05C37.8435 161.05 37.9528 161.041 38.0668 161.022C38.1853 161 38.2741 160.981 38.3334 160.968L38.3402 162C38.24 162.032 38.1078 162.062 37.9437 162.089C37.7842 162.121 37.5905 162.137 37.3627 162.137C37.0528 162.137 36.7679 162.075 36.5082 161.952C36.2484 161.829 36.0411 161.624 35.8861 161.337C35.7357 161.045 35.6605 160.653 35.6605 160.161V152.806ZM44.8848 152.047V162H43.5655V152.047H44.8848ZM49.0547 156.524V157.604H44.5977V156.524H49.0547ZM49.7315 152.047V153.127H44.5977V152.047H49.7315ZM52.5424 154.604V162H51.2709V154.604H52.5424ZM51.1752 152.642C51.1752 152.437 51.2367 152.263 51.3598 152.122C51.4874 151.981 51.6742 151.91 51.9203 151.91C52.1619 151.91 52.3464 151.981 52.474 152.122C52.6062 152.263 52.6723 152.437 52.6723 152.642C52.6723 152.838 52.6062 153.006 52.474 153.147C52.3464 153.284 52.1619 153.353 51.9203 153.353C51.6742 153.353 51.4874 153.284 51.3598 153.147C51.2367 153.006 51.1752 152.838 51.1752 152.642ZM55.8933 156.183V162H54.6287V154.604H55.825L55.8933 156.183ZM55.5925 158.021L55.0662 158.001C55.0707 157.495 55.1459 157.028 55.2918 156.6C55.4376 156.167 55.6427 155.791 55.907 155.472C56.1713 155.153 56.4858 154.907 56.8503 154.733C57.2195 154.556 57.6274 154.467 58.074 154.467C58.4386 154.467 58.7667 154.517 59.0584 154.617C59.35 154.713 59.5984 154.868 59.8035 155.082C60.0131 155.296 60.1726 155.574 60.282 155.916C60.3914 156.253 60.446 156.666 60.446 157.153V162H59.1746V157.14C59.1746 156.752 59.1176 156.442 59.0037 156.21C58.8897 155.973 58.7234 155.802 58.5046 155.697C58.2859 155.588 58.017 155.533 57.698 155.533C57.3835 155.533 57.0964 155.599 56.8367 155.731C56.5815 155.864 56.3604 156.046 56.1736 156.278C55.9913 156.511 55.8477 156.777 55.7429 157.078C55.6427 157.374 55.5925 157.689 55.5925 158.021ZM66.7843 160.735V156.928C66.7843 156.636 66.725 156.383 66.6065 156.169C66.4926 155.95 66.3194 155.782 66.087 155.663C65.8546 155.545 65.5675 155.485 65.2257 155.485C64.9067 155.485 64.6264 155.54 64.3849 155.649C64.1479 155.759 63.961 155.902 63.8243 156.08C63.6922 156.258 63.6261 156.449 63.6261 156.654H62.3614C62.3614 156.39 62.4298 156.128 62.5665 155.868C62.7032 155.608 62.8992 155.374 63.1544 155.164C63.4142 154.95 63.7241 154.781 64.0841 154.658C64.4487 154.531 64.8543 154.467 65.3009 154.467C65.8386 154.467 66.3126 154.558 66.7228 154.74C67.1375 154.923 67.461 155.198 67.6935 155.567C67.9304 155.932 68.0489 156.39 68.0489 156.941V160.387C68.0489 160.633 68.0694 160.895 68.1104 161.173C68.156 161.451 68.2221 161.69 68.3087 161.891V162H66.9894C66.9256 161.854 66.8754 161.66 66.839 161.419C66.8025 161.173 66.7843 160.945 66.7843 160.735ZM67.003 157.516L67.0167 158.404H65.7384C65.3784 158.404 65.0571 158.434 64.7745 158.493C64.492 158.548 64.255 158.632 64.0636 158.746C63.8722 158.86 63.7263 159.004 63.6261 159.177C63.5258 159.345 63.4757 159.544 63.4757 159.771C63.4757 160.004 63.5281 160.216 63.6329 160.407C63.7377 160.599 63.895 160.751 64.1046 160.865C64.3188 160.975 64.5808 161.029 64.8907 161.029C65.2781 161.029 65.6199 160.947 65.9161 160.783C66.2123 160.619 66.447 160.419 66.6202 160.182C66.7979 159.945 66.8937 159.715 66.9073 159.491L67.4474 160.1C67.4155 160.291 67.3289 160.503 67.1876 160.735C67.0463 160.968 66.8572 161.191 66.6202 161.405C66.3878 161.615 66.1098 161.79 65.7862 161.932C65.4672 162.068 65.1072 162.137 64.7062 162.137C64.2048 162.137 63.7651 162.039 63.3868 161.843C63.0131 161.647 62.7214 161.385 62.5118 161.057C62.3067 160.724 62.2042 160.353 62.2042 159.942C62.2042 159.546 62.2817 159.197 62.4366 158.896C62.5916 158.591 62.8149 158.338 63.1065 158.138C63.3982 157.933 63.7491 157.778 64.1593 157.673C64.5694 157.568 65.0274 157.516 65.5333 157.516H67.003ZM71.3588 156.183V162H70.0942V154.604H71.2905L71.3588 156.183ZM71.058 158.021L70.5317 158.001C70.5362 157.495 70.6114 157.028 70.7573 156.6C70.9031 156.167 71.1082 155.791 71.3725 155.472C71.6368 155.153 71.9513 154.907 72.3159 154.733C72.685 154.556 73.0929 154.467 73.5395 154.467C73.9041 154.467 74.2322 154.517 74.5239 154.617C74.8155 154.713 75.0639 154.868 75.269 155.082C75.4786 155.296 75.6381 155.574 75.7475 155.916C75.8569 156.253 75.9116 156.666 75.9116 157.153V162H74.6401V157.14C74.6401 156.752 74.5831 156.442 74.4692 156.21C74.3552 155.973 74.1889 155.802 73.9702 155.697C73.7514 155.588 73.4825 155.533 73.1635 155.533C72.8491 155.533 72.562 155.599 72.3022 155.731C72.047 155.864 71.8259 156.046 71.6391 156.278C71.4568 156.511 71.3133 156.777 71.2084 157.078C71.1082 157.374 71.058 157.689 71.058 158.021ZM80.8484 161.098C81.1492 161.098 81.4272 161.036 81.6824 160.913C81.9376 160.79 82.1472 160.621 82.3113 160.407C82.4754 160.188 82.5688 159.94 82.5916 159.662H83.7947C83.7719 160.1 83.6238 160.507 83.3504 160.886C83.0815 161.259 82.7283 161.562 82.2908 161.795C81.8533 162.023 81.3725 162.137 80.8484 162.137C80.2924 162.137 79.8071 162.039 79.3924 161.843C78.9822 161.647 78.6404 161.378 78.367 161.036C78.0981 160.694 77.8953 160.302 77.7586 159.86C77.6264 159.414 77.5603 158.942 77.5603 158.445V158.158C77.5603 157.661 77.6264 157.192 77.7586 156.75C77.8953 156.303 78.0981 155.909 78.367 155.567C78.6404 155.226 78.9822 154.957 79.3924 154.761C79.8071 154.565 80.2924 154.467 80.8484 154.467C81.4272 154.467 81.9331 154.585 82.366 154.822C82.7989 155.055 83.1385 155.374 83.3846 155.779C83.6352 156.18 83.7719 156.636 83.7947 157.146H82.5916C82.5688 156.841 82.4822 156.565 82.3318 156.319C82.186 156.073 81.9855 155.877 81.7303 155.731C81.4796 155.581 81.1857 155.506 80.8484 155.506C80.461 155.506 80.1352 155.583 79.8709 155.738C79.6111 155.889 79.4038 156.094 79.2488 156.354C79.0984 156.609 78.989 156.894 78.9207 157.208C78.8569 157.518 78.825 157.835 78.825 158.158V158.445C78.825 158.769 78.8569 159.088 78.9207 159.402C78.9845 159.717 79.0916 160.002 79.242 160.257C79.3969 160.512 79.6043 160.717 79.864 160.872C80.1284 161.022 80.4565 161.098 80.8484 161.098ZM86.6466 154.604V162H85.3751V154.604H86.6466ZM85.2794 152.642C85.2794 152.437 85.3409 152.263 85.464 152.122C85.5916 151.981 85.7784 151.91 86.0245 151.91C86.2661 151.91 86.4506 151.981 86.5782 152.122C86.7104 152.263 86.7765 152.437 86.7765 152.642C86.7765 152.838 86.7104 153.006 86.5782 153.147C86.4506 153.284 86.2661 153.353 86.0245 153.353C85.7784 153.353 85.5916 153.284 85.464 153.147C85.3409 153.006 85.2794 152.838 85.2794 152.642ZM89.9975 156.183V162H88.7329V154.604H89.9292L89.9975 156.183ZM89.6967 158.021L89.1704 158.001C89.1749 157.495 89.2501 157.028 89.396 156.6C89.5418 156.167 89.7469 155.791 90.0112 155.472C90.2755 155.153 90.59 154.907 90.9546 154.733C91.3237 154.556 91.7316 154.467 92.1782 154.467C92.5428 154.467 92.8709 154.517 93.1626 154.617C93.4542 154.713 93.7026 154.868 93.9077 155.082C94.1173 155.296 94.2768 155.574 94.3862 155.916C94.4956 156.253 94.5503 156.666 94.5503 157.153V162H93.2788V157.14C93.2788 156.752 93.2218 156.442 93.1079 156.21C92.9939 155.973 92.8276 155.802 92.6089 155.697C92.3901 155.588 92.1212 155.533 91.8022 155.533C91.4878 155.533 91.2007 155.599 90.9409 155.731C90.6857 155.864 90.4647 156.046 90.2778 156.278C90.0955 156.511 89.952 156.777 89.8471 157.078C89.7469 157.374 89.6967 157.689 89.6967 158.021ZM101.319 154.604H102.468V161.843C102.468 162.494 102.335 163.05 102.071 163.511C101.807 163.971 101.438 164.32 100.964 164.557C100.494 164.798 99.952 164.919 99.3367 164.919C99.0815 164.919 98.7807 164.878 98.4344 164.796C98.0926 164.718 97.7554 164.584 97.4227 164.393C97.0945 164.206 96.8188 163.953 96.5955 163.634L97.2586 162.882C97.5685 163.256 97.8921 163.515 98.2293 163.661C98.5711 163.807 98.9083 163.88 99.241 163.88C99.6421 163.88 99.9884 163.805 100.28 163.654C100.572 163.504 100.797 163.281 100.957 162.984C101.121 162.693 101.203 162.333 101.203 161.904V156.23L101.319 154.604ZM96.2264 158.384V158.24C96.2264 157.675 96.2925 157.162 96.4246 156.702C96.5613 156.237 96.755 155.839 97.0057 155.506C97.2609 155.173 97.5685 154.918 97.9285 154.74C98.2886 154.558 98.6942 154.467 99.1453 154.467C99.6102 154.467 100.016 154.549 100.362 154.713C100.713 154.872 101.009 155.107 101.251 155.417C101.497 155.722 101.691 156.091 101.832 156.524C101.973 156.957 102.071 157.447 102.126 157.994V158.623C102.076 159.165 101.978 159.653 101.832 160.086C101.691 160.519 101.497 160.888 101.251 161.193C101.009 161.499 100.713 161.733 100.362 161.897C100.011 162.057 99.6011 162.137 99.1317 162.137C98.6896 162.137 98.2886 162.043 97.9285 161.856C97.5731 161.67 97.2677 161.408 97.0125 161.07C96.7573 160.733 96.5613 160.337 96.4246 159.881C96.2925 159.421 96.2264 158.922 96.2264 158.384ZM97.491 158.24V158.384C97.491 158.753 97.5275 159.099 97.6004 159.423C97.6779 159.746 97.7941 160.031 97.949 160.277C98.1085 160.523 98.3113 160.717 98.5574 160.858C98.8035 160.995 99.0975 161.063 99.4393 161.063C99.8585 161.063 100.205 160.975 100.478 160.797C100.752 160.619 100.968 160.384 101.128 160.093C101.292 159.801 101.419 159.484 101.511 159.143V157.495C101.46 157.244 101.383 157.003 101.278 156.771C101.178 156.534 101.046 156.324 100.882 156.142C100.722 155.955 100.524 155.807 100.287 155.697C100.05 155.588 99.772 155.533 99.4529 155.533C99.1066 155.533 98.8081 155.606 98.5574 155.752C98.3113 155.893 98.1085 156.089 97.949 156.34C97.7941 156.586 97.6779 156.873 97.6004 157.201C97.5275 157.525 97.491 157.871 97.491 158.24Z" fill="#474F54"/>
<path d="M147.773 158.992L149.749 152.047H150.706L150.152 154.747L148.026 162H147.076L147.773 158.992ZM145.729 152.047L147.302 158.855L147.773 162H146.83L144.417 152.047H145.729ZM153.263 158.849L154.801 152.047H156.12L153.714 162H152.771L153.263 158.849ZM150.85 152.047L152.771 158.992L153.468 162H152.518L150.467 154.747L149.906 152.047H150.85ZM156.894 158.384V158.227C156.894 157.693 156.971 157.199 157.126 156.743C157.281 156.283 157.505 155.884 157.796 155.547C158.088 155.205 158.441 154.941 158.856 154.754C159.271 154.562 159.735 154.467 160.25 154.467C160.77 154.467 161.237 154.562 161.652 154.754C162.071 154.941 162.426 155.205 162.718 155.547C163.014 155.884 163.24 156.283 163.395 156.743C163.55 157.199 163.627 157.693 163.627 158.227V158.384C163.627 158.917 163.55 159.411 163.395 159.867C163.24 160.323 163.014 160.722 162.718 161.063C162.426 161.401 162.073 161.665 161.659 161.856C161.248 162.043 160.784 162.137 160.264 162.137C159.744 162.137 159.277 162.043 158.863 161.856C158.448 161.665 158.092 161.401 157.796 161.063C157.505 160.722 157.281 160.323 157.126 159.867C156.971 159.411 156.894 158.917 156.894 158.384ZM158.159 158.227V158.384C158.159 158.753 158.202 159.102 158.288 159.43C158.375 159.753 158.505 160.04 158.678 160.291C158.856 160.542 159.077 160.74 159.341 160.886C159.605 161.027 159.913 161.098 160.264 161.098C160.61 161.098 160.913 161.027 161.173 160.886C161.438 160.74 161.656 160.542 161.829 160.291C162.003 160.04 162.132 159.753 162.219 159.43C162.31 159.102 162.356 158.753 162.356 158.384V158.227C162.356 157.862 162.31 157.518 162.219 157.194C162.132 156.866 162 156.577 161.823 156.326C161.649 156.071 161.431 155.87 161.166 155.725C160.907 155.579 160.601 155.506 160.25 155.506C159.904 155.506 159.599 155.579 159.334 155.725C159.075 155.87 158.856 156.071 158.678 156.326C158.505 156.577 158.375 156.866 158.288 157.194C158.202 157.518 158.159 157.862 158.159 158.227ZM166.534 155.766V162H165.269V154.604H166.5L166.534 155.766ZM168.844 154.562L168.838 155.738C168.733 155.715 168.633 155.702 168.537 155.697C168.446 155.688 168.341 155.684 168.222 155.684C167.931 155.684 167.673 155.729 167.45 155.82C167.227 155.911 167.037 156.039 166.883 156.203C166.728 156.367 166.605 156.563 166.513 156.791C166.427 157.014 166.37 157.26 166.342 157.529L165.987 157.734C165.987 157.288 166.03 156.868 166.117 156.477C166.208 156.085 166.347 155.738 166.534 155.438C166.721 155.132 166.958 154.895 167.245 154.727C167.536 154.553 167.883 154.467 168.284 154.467C168.375 154.467 168.48 154.478 168.598 154.501C168.717 154.519 168.799 154.54 168.844 154.562ZM171.341 151.5V162H170.069V151.5H171.341ZM175.859 154.604L172.633 158.056L170.828 159.929L170.726 158.582L172.018 157.037L174.314 154.604H175.859ZM174.704 162L172.065 158.473L172.722 157.345L176.194 162H174.704ZM178.595 154.604V162H177.324V154.604H178.595ZM177.228 152.642C177.228 152.437 177.289 152.263 177.412 152.122C177.54 151.981 177.727 151.91 177.973 151.91C178.215 151.91 178.399 151.981 178.527 152.122C178.659 152.263 178.725 152.437 178.725 152.642C178.725 152.838 178.659 153.006 178.527 153.147C178.399 153.284 178.215 153.353 177.973 153.353C177.727 153.353 177.54 153.284 177.412 153.147C177.289 153.006 177.228 152.838 177.228 152.642ZM181.946 156.183V162H180.681V154.604H181.878L181.946 156.183ZM181.645 158.021L181.119 158.001C181.123 157.495 181.199 157.028 181.344 156.6C181.49 156.167 181.695 155.791 181.96 155.472C182.224 155.153 182.538 154.907 182.903 154.733C183.272 154.556 183.68 154.467 184.127 154.467C184.491 154.467 184.819 154.517 185.111 154.617C185.403 154.713 185.651 154.868 185.856 155.082C186.066 155.296 186.225 155.574 186.335 155.916C186.444 156.253 186.499 156.666 186.499 157.153V162H185.227V157.14C185.227 156.752 185.17 156.442 185.056 156.21C184.942 155.973 184.776 155.802 184.557 155.697C184.339 155.588 184.07 155.533 183.751 155.533C183.436 155.533 183.149 155.599 182.889 155.731C182.634 155.864 182.413 156.046 182.226 156.278C182.044 156.511 181.9 156.777 181.796 157.078C181.695 157.374 181.645 157.689 181.645 158.021ZM193.268 154.604H194.416V161.843C194.416 162.494 194.284 163.05 194.02 163.511C193.755 163.971 193.386 164.32 192.912 164.557C192.443 164.798 191.9 164.919 191.285 164.919C191.03 164.919 190.729 164.878 190.383 164.796C190.041 164.718 189.704 164.584 189.371 164.393C189.043 164.206 188.767 163.953 188.544 163.634L189.207 162.882C189.517 163.256 189.841 163.515 190.178 163.661C190.52 163.807 190.857 163.88 191.19 163.88C191.591 163.88 191.937 163.805 192.229 163.654C192.52 163.504 192.746 163.281 192.905 162.984C193.069 162.693 193.151 162.333 193.151 161.904V156.23L193.268 154.604ZM188.175 158.384V158.24C188.175 157.675 188.241 157.162 188.373 156.702C188.51 156.237 188.704 155.839 188.954 155.506C189.209 155.173 189.517 154.918 189.877 154.74C190.237 154.558 190.643 154.467 191.094 154.467C191.559 154.467 191.964 154.549 192.311 154.713C192.662 154.872 192.958 155.107 193.199 155.417C193.445 155.722 193.639 156.091 193.78 156.524C193.922 156.957 194.02 157.447 194.074 157.994V158.623C194.024 159.165 193.926 159.653 193.78 160.086C193.639 160.519 193.445 160.888 193.199 161.193C192.958 161.499 192.662 161.733 192.311 161.897C191.96 162.057 191.55 162.137 191.08 162.137C190.638 162.137 190.237 162.043 189.877 161.856C189.522 161.67 189.216 161.408 188.961 161.07C188.706 160.733 188.51 160.337 188.373 159.881C188.241 159.421 188.175 158.922 188.175 158.384ZM189.44 158.24V158.384C189.44 158.753 189.476 159.099 189.549 159.423C189.626 159.746 189.743 160.031 189.898 160.277C190.057 160.523 190.26 160.717 190.506 160.858C190.752 160.995 191.046 161.063 191.388 161.063C191.807 161.063 192.153 160.975 192.427 160.797C192.7 160.619 192.917 160.384 193.076 160.093C193.24 159.801 193.368 159.484 193.459 159.143V157.495C193.409 157.244 193.331 157.003 193.227 156.771C193.126 156.534 192.994 156.324 192.83 156.142C192.671 155.955 192.472 155.807 192.235 155.697C191.998 155.588 191.72 155.533 191.401 155.533C191.055 155.533 190.757 155.606 190.506 155.752C190.26 155.893 190.057 156.089 189.898 156.34C189.743 156.586 189.626 156.873 189.549 157.201C189.476 157.525 189.44 157.871 189.44 158.24ZM206.122 158.835H207.434C207.366 159.464 207.186 160.027 206.894 160.523C206.603 161.02 206.19 161.414 205.657 161.706C205.124 161.993 204.458 162.137 203.661 162.137C203.078 162.137 202.547 162.027 202.068 161.809C201.594 161.59 201.186 161.28 200.844 160.879C200.503 160.473 200.238 159.988 200.052 159.423C199.869 158.853 199.778 158.22 199.778 157.522V156.531C199.778 155.834 199.869 155.203 200.052 154.638C200.238 154.068 200.505 153.58 200.851 153.175C201.202 152.769 201.624 152.457 202.116 152.238C202.608 152.02 203.162 151.91 203.777 151.91C204.529 151.91 205.165 152.051 205.684 152.334C206.204 152.617 206.607 153.008 206.894 153.51C207.186 154.007 207.366 154.583 207.434 155.239H206.122C206.058 154.774 205.94 154.376 205.766 154.043C205.593 153.706 205.347 153.446 205.028 153.264C204.709 153.081 204.292 152.99 203.777 152.99C203.335 152.99 202.945 153.075 202.608 153.243C202.275 153.412 201.995 153.651 201.767 153.961C201.544 154.271 201.375 154.642 201.261 155.075C201.148 155.508 201.091 155.989 201.091 156.518V157.522C201.091 158.01 201.141 158.468 201.241 158.896C201.346 159.325 201.503 159.701 201.713 160.024C201.922 160.348 202.189 160.603 202.512 160.79C202.836 160.972 203.219 161.063 203.661 161.063C204.221 161.063 204.668 160.975 205.001 160.797C205.333 160.619 205.584 160.364 205.753 160.031C205.926 159.699 206.049 159.3 206.122 158.835ZM213.458 160.735V156.928C213.458 156.636 213.399 156.383 213.28 156.169C213.166 155.95 212.993 155.782 212.761 155.663C212.528 155.545 212.241 155.485 211.9 155.485C211.58 155.485 211.3 155.54 211.059 155.649C210.822 155.759 210.635 155.902 210.498 156.08C210.366 156.258 210.3 156.449 210.3 156.654H209.035C209.035 156.39 209.104 156.128 209.24 155.868C209.377 155.608 209.573 155.374 209.828 155.164C210.088 154.95 210.398 154.781 210.758 154.658C211.122 154.531 211.528 154.467 211.975 154.467C212.512 154.467 212.986 154.558 213.397 154.74C213.811 154.923 214.135 155.198 214.367 155.567C214.604 155.932 214.723 156.39 214.723 156.941V160.387C214.723 160.633 214.743 160.895 214.784 161.173C214.83 161.451 214.896 161.69 214.983 161.891V162H213.663C213.599 161.854 213.549 161.66 213.513 161.419C213.476 161.173 213.458 160.945 213.458 160.735ZM213.677 157.516L213.691 158.404H212.412C212.052 158.404 211.731 158.434 211.448 158.493C211.166 158.548 210.929 158.632 210.737 158.746C210.546 158.86 210.4 159.004 210.3 159.177C210.2 159.345 210.15 159.544 210.15 159.771C210.15 160.004 210.202 160.216 210.307 160.407C210.412 160.599 210.569 160.751 210.778 160.865C210.993 160.975 211.255 161.029 211.565 161.029C211.952 161.029 212.294 160.947 212.59 160.783C212.886 160.619 213.121 160.419 213.294 160.182C213.472 159.945 213.567 159.715 213.581 159.491L214.121 160.1C214.089 160.291 214.003 160.503 213.861 160.735C213.72 160.968 213.531 161.191 213.294 161.405C213.062 161.615 212.784 161.79 212.46 161.932C212.141 162.068 211.781 162.137 211.38 162.137C210.879 162.137 210.439 162.039 210.061 161.843C209.687 161.647 209.395 161.385 209.186 161.057C208.981 160.724 208.878 160.353 208.878 159.942C208.878 159.546 208.955 159.197 209.11 158.896C209.265 158.591 209.489 158.338 209.78 158.138C210.072 157.933 210.423 157.778 210.833 157.673C211.243 157.568 211.701 157.516 212.207 157.516H213.677ZM218.033 156.025V164.844H216.761V154.604H217.923L218.033 156.025ZM223.016 158.24V158.384C223.016 158.922 222.952 159.421 222.825 159.881C222.697 160.337 222.51 160.733 222.264 161.07C222.023 161.408 221.724 161.67 221.369 161.856C221.013 162.043 220.605 162.137 220.145 162.137C219.676 162.137 219.261 162.059 218.901 161.904C218.541 161.749 218.235 161.524 217.985 161.228C217.734 160.931 217.534 160.576 217.383 160.161C217.237 159.746 217.137 159.279 217.082 158.76V157.994C217.137 157.447 217.24 156.957 217.39 156.524C217.54 156.091 217.739 155.722 217.985 155.417C218.235 155.107 218.539 154.872 218.894 154.713C219.249 154.549 219.66 154.467 220.124 154.467C220.589 154.467 221.002 154.558 221.362 154.74C221.722 154.918 222.025 155.173 222.271 155.506C222.517 155.839 222.702 156.237 222.825 156.702C222.952 157.162 223.016 157.675 223.016 158.24ZM221.745 158.384V158.24C221.745 157.871 221.706 157.525 221.628 157.201C221.551 156.873 221.43 156.586 221.266 156.34C221.107 156.089 220.901 155.893 220.651 155.752C220.4 155.606 220.102 155.533 219.755 155.533C219.436 155.533 219.158 155.588 218.921 155.697C218.689 155.807 218.491 155.955 218.327 156.142C218.163 156.324 218.028 156.534 217.923 156.771C217.823 157.003 217.748 157.244 217.698 157.495V159.266C217.789 159.585 217.916 159.885 218.081 160.168C218.245 160.446 218.463 160.672 218.737 160.845C219.01 161.013 219.354 161.098 219.769 161.098C220.111 161.098 220.405 161.027 220.651 160.886C220.901 160.74 221.107 160.542 221.266 160.291C221.43 160.04 221.551 159.753 221.628 159.43C221.706 159.102 221.745 158.753 221.745 158.384ZM226.059 154.604V162H224.788V154.604H226.059ZM224.692 152.642C224.692 152.437 224.754 152.263 224.877 152.122C225.004 151.981 225.191 151.91 225.437 151.91C225.679 151.91 225.863 151.981 225.991 152.122C226.123 152.263 226.189 152.437 226.189 152.642C226.189 152.838 226.123 153.006 225.991 153.147C225.863 153.284 225.679 153.353 225.437 153.353C225.191 153.353 225.004 153.284 224.877 153.147C224.754 153.006 224.692 152.838 224.692 152.642ZM231.242 154.604V155.574H227.243V154.604H231.242ZM228.597 152.806H229.861V160.168C229.861 160.419 229.9 160.608 229.978 160.735C230.055 160.863 230.155 160.947 230.278 160.988C230.401 161.029 230.534 161.05 230.675 161.05C230.78 161.05 230.889 161.041 231.003 161.022C231.122 161 231.21 160.981 231.27 160.968L231.276 162C231.176 162.032 231.044 162.062 230.88 162.089C230.72 162.121 230.527 162.137 230.299 162.137C229.989 162.137 229.704 162.075 229.444 161.952C229.185 161.829 228.977 161.624 228.822 161.337C228.672 161.045 228.597 160.653 228.597 160.161V152.806ZM237.143 160.735V156.928C237.143 156.636 237.084 156.383 236.965 156.169C236.851 155.95 236.678 155.782 236.446 155.663C236.213 155.545 235.926 155.485 235.584 155.485C235.265 155.485 234.985 155.54 234.744 155.649C234.507 155.759 234.32 155.902 234.183 156.08C234.051 156.258 233.985 156.449 233.985 156.654H232.72C232.72 156.39 232.789 156.128 232.925 155.868C233.062 155.608 233.258 155.374 233.513 155.164C233.773 154.95 234.083 154.781 234.443 154.658C234.807 154.531 235.213 154.467 235.66 154.467C236.197 154.467 236.671 154.558 237.082 154.74C237.496 154.923 237.82 155.198 238.052 155.567C238.289 155.932 238.408 156.39 238.408 156.941V160.387C238.408 160.633 238.428 160.895 238.469 161.173C238.515 161.451 238.581 161.69 238.667 161.891V162H237.348C237.284 161.854 237.234 161.66 237.198 161.419C237.161 161.173 237.143 160.945 237.143 160.735ZM237.362 157.516L237.375 158.404H236.097C235.737 158.404 235.416 158.434 235.133 158.493C234.851 158.548 234.614 158.632 234.422 158.746C234.231 158.86 234.085 159.004 233.985 159.177C233.885 159.345 233.834 159.544 233.834 159.771C233.834 160.004 233.887 160.216 233.992 160.407C234.096 160.599 234.254 160.751 234.463 160.865C234.678 160.975 234.94 161.029 235.249 161.029C235.637 161.029 235.979 160.947 236.275 160.783C236.571 160.619 236.806 160.419 236.979 160.182C237.157 159.945 237.252 159.715 237.266 159.491L237.806 160.1C237.774 160.291 237.688 160.503 237.546 160.735C237.405 160.968 237.216 161.191 236.979 161.405C236.747 161.615 236.469 161.79 236.145 161.932C235.826 162.068 235.466 162.137 235.065 162.137C234.564 162.137 234.124 162.039 233.746 161.843C233.372 161.647 233.08 161.385 232.871 161.057C232.665 160.724 232.563 160.353 232.563 159.942C232.563 159.546 232.64 159.197 232.795 158.896C232.95 158.591 233.174 158.338 233.465 158.138C233.757 157.933 234.108 157.778 234.518 157.673C234.928 157.568 235.386 157.516 235.892 157.516H237.362ZM241.827 151.5V162H240.555V151.5H241.827Z" fill="#474F54"/>
<rect x="144" y="56" width="115" height="81" fill="#1DB385"/>
<rect x="140.5" y="52.5" width="122" height="88" stroke="#1DB385" stroke-opacity="0.1" stroke-width="7"/>
<path d="M288.84 152.929L285.545 162H284.198L287.992 152.047H288.86L288.84 152.929ZM291.602 162L288.3 152.929L288.279 152.047H289.147L292.955 162H291.602ZM291.431 158.315V159.396H285.839V158.315H291.431ZM295.417 156.183V162H294.153V154.604H295.349L295.417 156.183ZM295.117 158.021L294.59 158.001C294.595 157.495 294.67 157.028 294.816 156.6C294.962 156.167 295.167 155.791 295.431 155.472C295.695 155.153 296.01 154.907 296.374 154.733C296.743 154.556 297.151 154.467 297.598 154.467C297.963 154.467 298.291 154.517 298.582 154.617C298.874 154.713 299.122 154.868 299.327 155.082C299.537 155.296 299.697 155.574 299.806 155.916C299.915 156.253 299.97 156.666 299.97 157.153V162H298.699V157.14C298.699 156.752 298.642 156.442 298.528 156.21C298.414 155.973 298.247 155.802 298.029 155.697C297.81 155.588 297.541 155.533 297.222 155.533C296.908 155.533 296.62 155.599 296.361 155.731C296.105 155.864 295.884 156.046 295.698 156.278C295.515 156.511 295.372 156.777 295.267 157.078C295.167 157.374 295.117 157.689 295.117 158.021ZM304.907 161.098C305.208 161.098 305.486 161.036 305.741 160.913C305.996 160.79 306.206 160.621 306.37 160.407C306.534 160.188 306.627 159.94 306.65 159.662H307.853C307.83 160.1 307.682 160.507 307.409 160.886C307.14 161.259 306.787 161.562 306.349 161.795C305.912 162.023 305.431 162.137 304.907 162.137C304.351 162.137 303.866 162.039 303.451 161.843C303.041 161.647 302.699 161.378 302.425 161.036C302.157 160.694 301.954 160.302 301.817 159.86C301.685 159.414 301.619 158.942 301.619 158.445V158.158C301.619 157.661 301.685 157.192 301.817 156.75C301.954 156.303 302.157 155.909 302.425 155.567C302.699 155.226 303.041 154.957 303.451 154.761C303.866 154.565 304.351 154.467 304.907 154.467C305.486 154.467 305.992 154.585 306.424 154.822C306.857 155.055 307.197 155.374 307.443 155.779C307.694 156.18 307.83 156.636 307.853 157.146H306.65C306.627 156.841 306.541 156.565 306.39 156.319C306.244 156.073 306.044 155.877 305.789 155.731C305.538 155.581 305.244 155.506 304.907 155.506C304.52 155.506 304.194 155.583 303.929 155.738C303.67 155.889 303.462 156.094 303.307 156.354C303.157 156.609 303.048 156.894 302.979 157.208C302.915 157.518 302.883 157.835 302.883 158.158V158.445C302.883 158.769 302.915 159.088 302.979 159.402C303.043 159.717 303.15 160.002 303.3 160.257C303.455 160.512 303.663 160.717 303.923 160.872C304.187 161.022 304.515 161.098 304.907 161.098ZM310.705 154.604V162H309.434V154.604H310.705ZM309.338 152.642C309.338 152.437 309.399 152.263 309.522 152.122C309.65 151.981 309.837 151.91 310.083 151.91C310.325 151.91 310.509 151.981 310.637 152.122C310.769 152.263 310.835 152.437 310.835 152.642C310.835 152.838 310.769 153.006 310.637 153.147C310.509 153.284 310.325 153.353 310.083 153.353C309.837 153.353 309.65 153.284 309.522 153.147C309.399 153.006 309.338 152.838 309.338 152.642ZM314.165 151.5V162H312.894V151.5H314.165ZM317.626 154.604V162H316.354V154.604H317.626ZM316.259 152.642C316.259 152.437 316.32 152.263 316.443 152.122C316.571 151.981 316.758 151.91 317.004 151.91C317.245 151.91 317.43 151.981 317.557 152.122C317.69 152.263 317.756 152.437 317.756 152.642C317.756 152.838 317.69 153.006 317.557 153.147C317.43 153.284 317.245 153.353 317.004 153.353C316.758 153.353 316.571 153.284 316.443 153.147C316.32 153.006 316.259 152.838 316.259 152.642ZM324.073 160.735V156.928C324.073 156.636 324.014 156.383 323.896 156.169C323.782 155.95 323.608 155.782 323.376 155.663C323.144 155.545 322.857 155.485 322.515 155.485C322.196 155.485 321.915 155.54 321.674 155.649C321.437 155.759 321.25 155.902 321.113 156.08C320.981 156.258 320.915 156.449 320.915 156.654H319.65C319.65 156.39 319.719 156.128 319.856 155.868C319.992 155.608 320.188 155.374 320.443 155.164C320.703 154.95 321.013 154.781 321.373 154.658C321.738 154.531 322.143 154.467 322.59 154.467C323.128 154.467 323.602 154.558 324.012 154.74C324.426 154.923 324.75 155.198 324.982 155.567C325.219 155.932 325.338 156.39 325.338 156.941V160.387C325.338 160.633 325.358 160.895 325.399 161.173C325.445 161.451 325.511 161.69 325.598 161.891V162H324.278C324.215 161.854 324.164 161.66 324.128 161.419C324.092 161.173 324.073 160.945 324.073 160.735ZM324.292 157.516L324.306 158.404H323.027C322.667 158.404 322.346 158.434 322.064 158.493C321.781 158.548 321.544 158.632 321.353 158.746C321.161 158.86 321.015 159.004 320.915 159.177C320.815 159.345 320.765 159.544 320.765 159.771C320.765 160.004 320.817 160.216 320.922 160.407C321.027 160.599 321.184 160.751 321.394 160.865C321.608 160.975 321.87 161.029 322.18 161.029C322.567 161.029 322.909 160.947 323.205 160.783C323.501 160.619 323.736 160.419 323.909 160.182C324.087 159.945 324.183 159.715 324.196 159.491L324.736 160.1C324.704 160.291 324.618 160.503 324.477 160.735C324.335 160.968 324.146 161.191 323.909 161.405C323.677 161.615 323.399 161.79 323.075 161.932C322.756 162.068 322.396 162.137 321.995 162.137C321.494 162.137 321.054 162.039 320.676 161.843C320.302 161.647 320.01 161.385 319.801 161.057C319.596 160.724 319.493 160.353 319.493 159.942C319.493 159.546 319.571 159.197 319.726 158.896C319.881 158.591 320.104 158.338 320.396 158.138C320.687 157.933 321.038 157.778 321.448 157.673C321.858 157.568 322.316 157.516 322.822 157.516H324.292ZM328.648 155.766V162H327.383V154.604H328.614L328.648 155.766ZM330.958 154.562L330.952 155.738C330.847 155.715 330.746 155.702 330.651 155.697C330.56 155.688 330.455 155.684 330.336 155.684C330.045 155.684 329.787 155.729 329.564 155.82C329.341 155.911 329.151 156.039 328.996 156.203C328.842 156.367 328.718 156.563 328.627 156.791C328.541 157.014 328.484 157.26 328.456 157.529L328.101 157.734C328.101 157.288 328.144 156.868 328.231 156.477C328.322 156.085 328.461 155.738 328.648 155.438C328.835 155.132 329.072 154.895 329.359 154.727C329.65 154.553 329.997 154.467 330.398 154.467C330.489 154.467 330.594 154.478 330.712 154.501C330.831 154.519 330.913 154.54 330.958 154.562ZM334.385 161.234L336.442 154.604H337.796L334.829 163.142C334.761 163.324 334.669 163.52 334.555 163.729C334.446 163.944 334.305 164.146 334.132 164.338C333.958 164.529 333.749 164.684 333.503 164.803C333.261 164.926 332.972 164.987 332.635 164.987C332.534 164.987 332.407 164.974 332.252 164.946C332.097 164.919 331.987 164.896 331.924 164.878L331.917 163.853C331.953 163.857 332.01 163.862 332.088 163.866C332.17 163.875 332.227 163.88 332.259 163.88C332.546 163.88 332.789 163.841 332.99 163.764C333.191 163.691 333.359 163.565 333.496 163.388C333.637 163.215 333.758 162.975 333.858 162.67L334.385 161.234ZM332.874 154.604L334.795 160.346L335.123 161.679L334.214 162.144L331.493 154.604H332.874ZM348.018 159.484C348.018 159.252 347.982 159.047 347.909 158.869C347.84 158.687 347.717 158.523 347.539 158.377C347.366 158.231 347.125 158.092 346.815 157.96C346.51 157.828 346.122 157.693 345.653 157.557C345.161 157.411 344.716 157.249 344.32 157.071C343.923 156.889 343.584 156.682 343.301 156.449C343.019 156.217 342.802 155.95 342.652 155.649C342.501 155.349 342.426 155.005 342.426 154.617C342.426 154.23 342.506 153.872 342.665 153.544C342.825 153.216 343.053 152.931 343.349 152.689C343.65 152.443 344.008 152.252 344.422 152.115C344.837 151.979 345.3 151.91 345.81 151.91C346.557 151.91 347.191 152.054 347.71 152.341C348.234 152.623 348.633 152.995 348.907 153.455C349.18 153.911 349.317 154.398 349.317 154.918H348.004C348.004 154.544 347.925 154.214 347.765 153.927C347.606 153.635 347.364 153.407 347.04 153.243C346.717 153.075 346.307 152.99 345.81 152.99C345.341 152.99 344.953 153.061 344.648 153.202C344.343 153.343 344.115 153.535 343.964 153.776C343.818 154.018 343.746 154.294 343.746 154.604C343.746 154.813 343.789 155.005 343.875 155.178C343.967 155.346 344.106 155.504 344.292 155.649C344.484 155.795 344.725 155.93 345.017 156.053C345.313 156.176 345.666 156.294 346.077 156.408C346.642 156.568 347.129 156.745 347.539 156.941C347.95 157.137 348.287 157.358 348.551 157.604C348.82 157.846 349.018 158.122 349.146 158.432C349.278 158.737 349.344 159.083 349.344 159.471C349.344 159.876 349.262 160.243 349.098 160.571C348.934 160.899 348.699 161.18 348.394 161.412C348.089 161.645 347.722 161.825 347.293 161.952C346.87 162.075 346.396 162.137 345.872 162.137C345.411 162.137 344.958 162.073 344.511 161.945C344.069 161.818 343.666 161.626 343.301 161.371C342.941 161.116 342.652 160.801 342.433 160.428C342.219 160.049 342.112 159.612 342.112 159.115H343.424C343.424 159.457 343.49 159.751 343.623 159.997C343.755 160.239 343.935 160.439 344.163 160.599C344.395 160.758 344.657 160.877 344.949 160.954C345.245 161.027 345.553 161.063 345.872 161.063C346.332 161.063 346.721 161 347.04 160.872C347.359 160.744 347.601 160.562 347.765 160.325C347.934 160.088 348.018 159.808 348.018 159.484ZM353.96 162.137C353.445 162.137 352.978 162.05 352.558 161.877C352.144 161.699 351.786 161.451 351.485 161.132C351.189 160.813 350.961 160.435 350.802 159.997C350.642 159.56 350.562 159.081 350.562 158.562V158.274C350.562 157.673 350.651 157.137 350.829 156.668C351.007 156.194 351.248 155.793 351.553 155.465C351.859 155.137 352.205 154.888 352.593 154.72C352.98 154.551 353.381 154.467 353.796 154.467C354.324 154.467 354.78 154.558 355.163 154.74C355.55 154.923 355.867 155.178 356.113 155.506C356.359 155.829 356.541 156.212 356.66 156.654C356.778 157.092 356.838 157.57 356.838 158.09V158.657H351.314V157.625H355.573V157.529C355.555 157.201 355.486 156.882 355.368 156.572C355.254 156.262 355.072 156.007 354.821 155.807C354.57 155.606 354.229 155.506 353.796 155.506C353.509 155.506 353.244 155.567 353.003 155.69C352.761 155.809 352.554 155.987 352.381 156.224C352.207 156.461 352.073 156.75 351.977 157.092C351.882 157.434 351.834 157.828 351.834 158.274V158.562C351.834 158.912 351.882 159.243 351.977 159.553C352.078 159.858 352.221 160.127 352.408 160.359C352.599 160.592 352.83 160.774 353.098 160.906C353.372 161.038 353.682 161.104 354.028 161.104C354.475 161.104 354.853 161.013 355.163 160.831C355.473 160.649 355.744 160.405 355.976 160.1L356.742 160.708C356.582 160.95 356.38 161.18 356.134 161.398C355.887 161.617 355.584 161.795 355.224 161.932C354.869 162.068 354.447 162.137 353.96 162.137ZM359.635 155.766V162H358.37V154.604H359.601L359.635 155.766ZM361.945 154.562L361.939 155.738C361.834 155.715 361.734 155.702 361.638 155.697C361.547 155.688 361.442 155.684 361.323 155.684C361.032 155.684 360.774 155.729 360.551 155.82C360.328 155.911 360.138 156.039 359.984 156.203C359.829 156.367 359.706 156.563 359.614 156.791C359.528 157.014 359.471 157.26 359.443 157.529L359.088 157.734C359.088 157.288 359.131 156.868 359.218 156.477C359.309 156.085 359.448 155.738 359.635 155.438C359.822 155.132 360.059 154.895 360.346 154.727C360.637 154.553 360.984 154.467 361.385 154.467C361.476 154.467 361.581 154.478 361.699 154.501C361.818 154.519 361.9 154.54 361.945 154.562ZM365.542 160.858L367.566 154.604H368.858L366.199 162H365.351L365.542 160.858ZM363.854 154.604L365.939 160.893L366.082 162H365.235L362.555 154.604H363.854ZM371.505 154.604V162H370.233V154.604H371.505ZM370.138 152.642C370.138 152.437 370.199 152.263 370.322 152.122C370.45 151.981 370.637 151.91 370.883 151.91C371.124 151.91 371.309 151.981 371.436 152.122C371.569 152.263 371.635 152.437 371.635 152.642C371.635 152.838 371.569 153.006 371.436 153.147C371.309 153.284 371.124 153.353 370.883 153.353C370.637 153.353 370.45 153.284 370.322 153.147C370.199 153.006 370.138 152.838 370.138 152.642ZM376.551 161.098C376.852 161.098 377.13 161.036 377.385 160.913C377.64 160.79 377.85 160.621 378.014 160.407C378.178 160.188 378.271 159.94 378.294 159.662H379.497C379.474 160.1 379.326 160.507 379.053 160.886C378.784 161.259 378.431 161.562 377.993 161.795C377.556 162.023 377.075 162.137 376.551 162.137C375.995 162.137 375.51 162.039 375.095 161.843C374.685 161.647 374.343 161.378 374.069 161.036C373.801 160.694 373.598 160.302 373.461 159.86C373.329 159.414 373.263 158.942 373.263 158.445V158.158C373.263 157.661 373.329 157.192 373.461 156.75C373.598 156.303 373.801 155.909 374.069 155.567C374.343 155.226 374.685 154.957 375.095 154.761C375.51 154.565 375.995 154.467 376.551 154.467C377.13 154.467 377.636 154.585 378.069 154.822C378.501 155.055 378.841 155.374 379.087 155.779C379.338 156.18 379.474 156.636 379.497 157.146H378.294C378.271 156.841 378.185 156.565 378.034 156.319C377.888 156.073 377.688 155.877 377.433 155.731C377.182 155.581 376.888 155.506 376.551 155.506C376.164 155.506 375.838 155.583 375.573 155.738C375.314 155.889 375.106 156.094 374.951 156.354C374.801 156.609 374.692 156.894 374.623 157.208C374.559 157.518 374.527 157.835 374.527 158.158V158.445C374.527 158.769 374.559 159.088 374.623 159.402C374.687 159.717 374.794 160.002 374.944 160.257C375.099 160.512 375.307 160.717 375.567 160.872C375.831 161.022 376.159 161.098 376.551 161.098ZM384.044 162.137C383.529 162.137 383.062 162.05 382.643 161.877C382.228 161.699 381.871 161.451 381.57 161.132C381.274 160.813 381.046 160.435 380.886 159.997C380.727 159.56 380.647 159.081 380.647 158.562V158.274C380.647 157.673 380.736 157.137 380.914 156.668C381.091 156.194 381.333 155.793 381.638 155.465C381.944 155.137 382.29 154.888 382.677 154.72C383.065 154.551 383.466 154.467 383.88 154.467C384.409 154.467 384.865 154.558 385.248 154.74C385.635 154.923 385.952 155.178 386.198 155.506C386.444 155.829 386.626 156.212 386.745 156.654C386.863 157.092 386.922 157.57 386.922 158.09V158.657H381.399V157.625H385.658V157.529C385.639 157.201 385.571 156.882 385.453 156.572C385.339 156.262 385.156 156.007 384.906 155.807C384.655 155.606 384.313 155.506 383.88 155.506C383.593 155.506 383.329 155.567 383.087 155.69C382.846 155.809 382.639 155.987 382.465 156.224C382.292 156.461 382.158 156.75 382.062 157.092C381.966 157.434 381.918 157.828 381.918 158.274V158.562C381.918 158.912 381.966 159.243 382.062 159.553C382.162 159.858 382.306 160.127 382.493 160.359C382.684 160.592 382.914 160.774 383.183 160.906C383.457 161.038 383.766 161.104 384.113 161.104C384.559 161.104 384.938 161.013 385.248 160.831C385.557 160.649 385.829 160.405 386.061 160.1L386.827 160.708C386.667 160.95 386.464 161.18 386.218 161.398C385.972 161.617 385.669 161.795 385.309 161.932C384.954 162.068 384.532 162.137 384.044 162.137ZM392.762 160.038C392.762 159.856 392.721 159.687 392.639 159.532C392.561 159.373 392.399 159.229 392.153 159.102C391.912 158.969 391.547 158.855 391.059 158.76C390.649 158.673 390.278 158.571 389.945 158.452C389.617 158.334 389.337 158.19 389.104 158.021C388.876 157.853 388.701 157.655 388.578 157.427C388.455 157.199 388.393 156.932 388.393 156.627C388.393 156.335 388.457 156.06 388.585 155.8C388.717 155.54 388.902 155.31 389.139 155.109C389.38 154.909 389.669 154.752 390.007 154.638C390.344 154.524 390.72 154.467 391.135 154.467C391.727 154.467 392.233 154.572 392.652 154.781C393.071 154.991 393.393 155.271 393.616 155.622C393.839 155.968 393.951 156.354 393.951 156.777H392.686C392.686 156.572 392.625 156.374 392.502 156.183C392.383 155.987 392.208 155.825 391.975 155.697C391.748 155.57 391.467 155.506 391.135 155.506C390.784 155.506 390.499 155.561 390.28 155.67C390.066 155.775 389.909 155.909 389.808 156.073C389.713 156.237 389.665 156.41 389.665 156.593C389.665 156.729 389.688 156.853 389.733 156.962C389.783 157.067 389.87 157.165 389.993 157.256C390.116 157.342 390.289 157.424 390.513 157.502C390.736 157.579 391.021 157.657 391.367 157.734C391.973 157.871 392.472 158.035 392.864 158.227C393.256 158.418 393.548 158.653 393.739 158.931C393.931 159.209 394.026 159.546 394.026 159.942C394.026 160.266 393.958 160.562 393.821 160.831C393.689 161.1 393.495 161.332 393.24 161.528C392.989 161.72 392.689 161.87 392.338 161.979C391.991 162.084 391.602 162.137 391.169 162.137C390.517 162.137 389.966 162.021 389.515 161.788C389.063 161.556 388.722 161.255 388.489 160.886C388.257 160.517 388.14 160.127 388.14 159.717H389.412C389.43 160.063 389.53 160.339 389.713 160.544C389.895 160.744 390.118 160.888 390.383 160.975C390.647 161.057 390.909 161.098 391.169 161.098C391.515 161.098 391.805 161.052 392.037 160.961C392.274 160.87 392.454 160.744 392.577 160.585C392.7 160.425 392.762 160.243 392.762 160.038Z" fill="#474F54"/>
<rect x="284" y="72" width="116" height="65" fill="#1DB385"/>
<rect x="282.5" y="70.5" width="119" height="68" stroke="#1DB385" stroke-opacity="0.1" stroke-width="3"/>
</svg>
