<svg width="27" height="27" viewBox="0 0 27 27" fill="none" xmlns="http://www.w3.org/2000/svg">
<path d="M7.59386 22.7813H19.2255C20.2367 22.7813 21.0203 22.4933 21.5759 21.9174C22.1386 21.3482 22.4198 20.5111 22.4198 19.4063V8.8895L20.1798 11.1194V19.1853C20.1798 19.6472 20.0727 19.9922 19.8584 20.2199C19.644 20.4408 19.3729 20.5514 19.0448 20.5514H7.78471C7.34274 20.5514 7.00458 20.4408 6.77019 20.2199C6.53582 19.9922 6.41864 19.6472 6.41864 19.1853V8.16629C6.41864 7.70424 6.53582 7.35937 6.77019 7.1317C7.00458 6.90401 7.34274 6.79017 7.78471 6.79017H15.9409L18.1709 4.55022H7.59386C6.48225 4.55022 5.63515 4.83816 5.05257 5.41406C4.47667 5.98994 4.18872 6.82701 4.18872 7.92521V19.4063C4.18872 20.5111 4.47667 21.3482 5.05257 21.9174C5.63515 22.4933 6.48225 22.7813 7.59386 22.7813ZM11.4912 15.9308L13.6005 15.0569L22.5604 6.0971L20.913 4.45982L11.9532 13.4196L11.0492 15.4788C10.989 15.6127 11.0157 15.7333 11.1296 15.8404C11.2434 15.9475 11.3639 15.9777 11.4912 15.9308ZM23.2836 5.38392L24.0671 4.57031C24.268 4.35602 24.3717 4.11495 24.3784 3.8471C24.3919 3.57255 24.298 3.33482 24.0972 3.13392L23.8159 2.83258C23.6418 2.65178 23.4175 2.57477 23.143 2.60156C22.8751 2.62834 22.6408 2.74218 22.4398 2.94307L21.6262 3.72656L23.2836 5.38392Z" fill="#474F54"/>
</svg>
