<svg width="20" height="20" viewBox="0 0 20 20" fill="none" xmlns="http://www.w3.org/2000/svg">
<mask id="mask0_175_676" style="mask-type:alpha" maskUnits="userSpaceOnUse" x="2" y="0" width="16" height="17">
<path fill-rule="evenodd" clip-rule="evenodd" d="M2.5 0.750122H17.8748V16.8789H2.5V0.750122Z" fill="white"/>
</mask>
<g mask="url(#mask0_175_676)">
<path fill-rule="evenodd" clip-rule="evenodd" d="M11.2876 11.4684C12.1906 11.4684 12.9256 12.1982 12.9256 13.0952V15.4022C12.9256 15.5949 13.0801 15.7494 13.2781 15.7539H14.7076C15.8341 15.7539 16.7499 14.8494 16.7499 13.7379V7.19494C16.7446 6.81244 16.5624 6.45244 16.2496 6.21319L11.3049 2.26969C10.6411 1.74394 9.71263 1.74394 9.04663 2.27119L4.13563 6.21169C3.81088 6.45844 3.62863 6.81844 3.62488 7.20769V13.7379C3.62488 14.8494 4.54063 15.7539 5.66713 15.7539H7.11013C7.31338 15.7539 7.47838 15.5927 7.47838 15.3947C7.47838 15.3512 7.48363 15.3077 7.49263 15.2664V13.0952C7.49263 12.2034 8.22313 11.4744 9.11938 11.4684H11.2876ZM14.7076 16.8789H13.2646C12.4381 16.8594 11.8006 16.2107 11.8006 15.4022V13.0952C11.8006 12.8184 11.5704 12.5934 11.2876 12.5934H9.12313C8.84638 12.5949 8.61763 12.8207 8.61763 13.0952V15.3947C8.61763 15.4509 8.61013 15.5049 8.59438 15.5559C8.51338 16.2984 7.87888 16.8789 7.11013 16.8789H5.66713C3.92038 16.8789 2.49988 15.4697 2.49988 13.7379V7.20244C2.50738 6.45694 2.85088 5.77444 3.44413 5.32519L8.34538 1.39144C9.42463 0.536438 10.9284 0.536438 12.0054 1.38994L16.9419 5.32744C17.5216 5.76919 17.8651 6.45019 17.8749 7.18669V13.7379C17.8749 15.4697 16.4544 16.8789 14.7076 16.8789Z" fill="black"/>
</g>
</svg>
