<svg width="20" height="20" viewBox="0 0 20 20" fill="none" xmlns="http://www.w3.org/2000/svg">
<g opacity="0.4">
<path fill-rule="evenodd" clip-rule="evenodd" d="M8.74984 1.66656C4.83782 1.66656 1.6665 4.83788 1.6665 8.7499C1.6665 12.6619 4.83782 15.8332 8.74984 15.8332C10.4056 15.8332 11.9287 15.2651 13.1348 14.3132L16.1783 17.3568C16.5038 17.6822 17.0314 17.6822 17.3568 17.3568C17.6823 17.0314 17.6823 16.5037 17.3568 16.1783L14.3133 13.1347C15.2651 11.9286 15.8332 10.4056 15.8332 8.7499C15.8332 4.83788 12.6618 1.66656 8.74984 1.66656ZM3.33317 8.7499C3.33317 5.75836 5.7583 3.33323 8.74984 3.33323C11.7414 3.33323 14.1665 5.75836 14.1665 8.7499C14.1665 11.7415 11.7414 14.1666 8.74984 14.1666C5.7583 14.1666 3.33317 11.7415 3.33317 8.7499Z" fill="#474F54"/>
</g>
</svg>
